AdventPro-blk_wd.ufo
<glyph name="percent" format="2">
  <advance width="1095" height="962"/>
  <unicode hex="0025"/>
  <outline>
    <contour>
      <point x="53" y="0" type="line"/>
      <point x="861" y="700" type="line"/>
      <point x="1037" y="700" type="line"/>
      <point x="225" y="0" type="line"/>
    </contour>
    <contour>
      <point x="282" y="715" type="curve" smooth="yes"/>
      <point x="399" y="715"/>
      <point x="500" y="650"/>
      <point x="500" y="570" type="curve" smooth="yes"/>
      <point x="500" y="489"/>
      <point x="399" y="423"/>
      <point x="282" y="423" type="curve" smooth="yes"/>
      <point x="161" y="423"/>
      <point x="62" y="489"/>
      <point x="62" y="570" type="curve" smooth="yes"/>
      <point x="62" y="650"/>
      <point x="161" y="715"/>
    </contour>
    <contour>
      <point x="282" y="622" type="curve" smooth="yes"/>
      <point x="237" y="622"/>
      <point x="203" y="598"/>
      <point x="203" y="570" type="curve" smooth="yes"/>
      <point x="203" y="541"/>
      <point x="237" y="517"/>
      <point x="282" y="517" type="curve" smooth="yes"/>
      <point x="323" y="517"/>
      <point x="360" y="541"/>
      <point x="360" y="570" type="curve" smooth="yes"/>
      <point x="360" y="598"/>
      <point x="323" y="622"/>
    </contour>
    <contour>
      <point x="824" y="278" type="curve" smooth="yes"/>
      <point x="944" y="278"/>
      <point x="1041" y="213"/>
      <point x="1041" y="132" type="curve" smooth="yes"/>
      <point x="1041" y="51"/>
      <point x="944" y="-14"/>
      <point x="824" y="-14" type="curve" smooth="yes"/>
      <point x="702" y="-14"/>
      <point x="603" y="51"/>
      <point x="603" y="132" type="curve" smooth="yes"/>
      <point x="603" y="213"/>
      <point x="702" y="278"/>
    </contour>
    <contour>
      <point x="824" y="185" type="curve" smooth="yes"/>
      <point x="780" y="185"/>
      <point x="746" y="159"/>
      <point x="746" y="132" type="curve" smooth="yes"/>
      <point x="746" y="103"/>
      <point x="780" y="79"/>
      <point x="824" y="79" type="curve" smooth="yes"/>
      <point x="864" y="79"/>
      <point x="900" y="103"/>
      <point x="900" y="132" type="curve" smooth="yes"/>
      <point x="900" y="159"/>
      <point x="864" y="185"/>
    </contour>
  </outline>
</glyph>
<glyph name="ampersand" format="1">
  <advance width="767" height="962"/>
  <unicode hex="0026"/>
  <outline>
    <contour>
      <point x="555" y="533" type="line"/>
      <point x="337" y="533" type="line" smooth="yes"/>
      <point x="275" y="533"/>
      <point x="258" y="516"/>
      <point x="258" y="492" type="curve" smooth="yes"/>
      <point x="258" y="462"/>
      <point x="296" y="419"/>
      <point x="358" y="404" type="curve"/>
      <point x="404" y="404" type="line"/>
      <point x="404" y="508" type="line"/>
      <point x="584" y="508" type="line"/>
      <point x="584" y="404" type="line"/>
      <point x="734" y="404" type="line"/>
      <point x="700" y="270" type="line"/>
      <point x="581" y="270" type="line"/>
      <point x="581" y="197" type="line" smooth="yes"/>
      <point x="581" y="151"/>
      <point x="632" y="140"/>
      <point x="701" y="140" type="curve"/>
      <point x="650" y="-8" type="line"/>
      <point x="559" y="-7"/>
      <point x="496" y="5"/>
      <point x="445" y="42" type="curve"/>
      <point x="388" y="7"/>
      <point x="285" y="-2"/>
      <point x="224" y="-2" type="curve" smooth="yes"/>
      <point x="108" y="-2"/>
      <point x="31" y="65"/>
      <point x="31" y="160" type="curve" smooth="yes"/>
      <point x="31" y="287" type="line" smooth="yes"/>
      <point x="31" y="360"/>
      <point x="84" y="404"/>
      <point x="143" y="404" type="curve" smooth="yes"/>
      <point x="175" y="404" type="line"/>
      <point x="108" y="437"/>
      <point x="79" y="488"/>
      <point x="79" y="556" type="curve" smooth="yes"/>
      <point x="79" y="642"/>
      <point x="161" y="702"/>
      <point x="296" y="702" type="curve" smooth="yes"/>
      <point x="592" y="702" type="line"/>
    </contour>
    <contour>
      <point x="404" y="274" type="line"/>
      <point x="250" y="274" type="line" smooth="yes"/>
      <point x="223" y="274"/>
      <point x="213" y="265"/>
      <point x="213" y="240" type="curve" smooth="yes"/>
      <point x="213" y="218" type="line" smooth="yes"/>
      <point x="213" y="191"/>
      <point x="227" y="169"/>
      <point x="283" y="169" type="curve" smooth="yes"/>
      <point x="336" y="169"/>
      <point x="404" y="183"/>
      <point x="404" y="206" type="curve" smooth="yes"/>
    </contour>
  </outline>
</glyph>
<glyph name="one" format="2">
  <advance width="470" height="962"/>
  <unicode hex="0031"/>
  <outline>
    <contour>
      <point x="26" y="629" type="line"/>
      <point x="23" y="630"/>
      <point x="176" y="646"/>
      <point x="250" y="700" type="curve"/>
      <point x="430" y="700" type="line"/>
      <point x="430" y="0" type="line"/>
      <point x="248" y="0" type="line"/>
      <point x="248" y="508" type="line"/>
      <point x="186" y="486"/>
      <point x="71" y="476"/>
      <point x="74" y="477" type="curve"/>
    </contour>
  </outline>
</glyph>
<glyph name="three" format="1">
  <advance width="654" height="962"/>
  <unicode hex="0033"/>
  <outline>
    <contour>
      <point x="428" y="412" type="line" smooth="yes"/>
      <point x="552" y="396"/>
      <point x="623" y="321"/>
      <point x="623" y="212" type="curve" smooth="yes"/>
      <point x="623" y="83"/>
      <point x="491" y="-12"/>
      <point x="302" y="-12" type="curve" smooth="yes"/>
      <point x="196" y="-12"/>
      <point x="101" y="3"/>
      <point x="10" y="60" type="curve"/>
      <point x="96" y="186" type="line"/>
      <point x="138" y="162"/>
      <point x="216" y="153"/>
      <point x="300" y="153" type="curve" smooth="yes"/>
      <point x="391" y="153"/>
      <point x="439" y="181"/>
      <point x="439" y="215" type="curve" smooth="yes"/>
      <point x="439" y="260"/>
      <point x="367" y="275"/>
      <point x="281" y="275" type="curve" smooth="yes"/>
      <point x="98" y="275" type="line"/>
      <point x="324" y="540" type="line"/>
      <point x="103" y="540" type="line"/>
      <point x="103" y="700" type="line"/>
      <point x="539" y="700" type="line"/>
      <point x="539" y="540" type="line"/>
      <point x="420" y="413" type="line"/>
    </contour>
  </outline>
</glyph>
<glyph name="five" format="1">
  <advance width="684" height="962"/>
  <unicode hex="0035"/>
  <outline>
    <contour>
      <point x="268" y="431" type="line"/>
      <point x="353" y="431" type="line" smooth="yes"/>
      <point x="545" y="431"/>
      <point x="659" y="337"/>
      <point x="659" y="218" type="curve" smooth="yes"/>
      <point x="659" y="86"/>
      <point x="543" y="-12"/>
      <point x="312" y="-12" type="curve" smooth="yes"/>
      <point x="161" y="-12"/>
      <point x="22" y="49"/>
      <point x="22" y="47" type="curve"/>
      <point x="77" y="186" type="line"/>
      <point x="77" y="186"/>
      <point x="210" y="154"/>
      <point x="326" y="154" type="curve" smooth="yes"/>
      <point x="401" y="154"/>
      <point x="476" y="167"/>
      <point x="476" y="212" type="curve" smooth="yes"/>
      <point x="476" y="259"/>
      <point x="410" y="274"/>
      <point x="315" y="274" type="curve" smooth="yes"/>
      <point x="84" y="274" type="line"/>
      <point x="123" y="700" type="line"/>
      <point x="572" y="700" type="line"/>
      <point x="572" y="540" type="line"/>
      <point x="279" y="540" type="line"/>
    </contour>
  </outline>
</glyph>
<glyph name="seven" format="1">
  <advance width="674" height="962"/>
  <unicode hex="0037"/>
  <outline>
    <contour>
      <point x="238" y="0" type="line"/>
      <point x="28" y="0" type="line"/>
      <point x="434" y="540" type="line"/>
      <point x="49" y="540" type="line"/>
      <point x="49" y="700" type="line"/>
      <point x="650" y="700" type="line"/>
      <point x="650" y="540" type="line"/>
    </contour>
  </outline>
</glyph>
<glyph name="eight" format="1">
  <advance width="695" height="962"/>
  <unicode hex="0038"/>
  <outline>
    <contour>
      <point x="350" y="710" type="curve" smooth="yes"/>
      <point x="496" y="710"/>
      <point x="614" y="641"/>
      <point x="614" y="534" type="curve" smooth="yes"/>
      <point x="614" y="465"/>
      <point x="578" y="405"/>
      <point x="499" y="378" type="curve"/>
      <point x="601" y="358"/>
      <point x="670" y="289"/>
      <point x="670" y="202" type="curve" smooth="yes"/>
      <point x="670" y="55"/>
      <point x="524" y="-12"/>
      <point x="349" y="-12" type="curve" smooth="yes"/>
      <point x="172" y="-12"/>
      <point x="28" y="54"/>
      <point x="28" y="202" type="curve" smooth="yes"/>
      <point x="28" y="287"/>
      <point x="97" y="362"/>
      <point x="200" y="379" type="curve"/>
      <point x="124" y="405"/>
      <point x="88" y="466"/>
      <point x="88" y="534" type="curve" smooth="yes"/>
      <point x="88" y="642"/>
      <point x="203" y="710"/>
    </contour>
    <contour>
      <point x="349" y="494" type="curve" smooth="yes"/>
      <point x="397" y="494"/>
      <point x="434" y="508"/>
      <point x="434" y="531" type="curve" smooth="yes"/>
      <point x="434" y="556"/>
      <point x="402" y="566"/>
      <point x="349" y="566" type="curve" smooth="yes"/>
      <point x="298" y="566"/>
      <point x="263" y="556"/>
      <point x="263" y="531" type="curve" smooth="yes"/>
      <point x="263" y="507"/>
      <point x="299" y="494"/>
    </contour>
    <contour>
      <point x="349" y="153" type="curve" smooth="yes"/>
      <point x="432" y="153"/>
      <point x="497" y="167"/>
      <point x="497" y="202" type="curve" smooth="yes"/>
      <point x="497" y="237"/>
      <point x="433" y="251"/>
      <point x="349" y="251" type="curve" smooth="yes"/>
      <point x="264" y="251"/>
      <point x="199" y="237"/>
      <point x="199" y="202" type="curve" smooth="yes"/>
      <point x="199" y="167"/>
      <point x="264" y="153"/>
    </contour>
  </outline>
</glyph>
<glyph name="less" format="2">
  <advance width="618" height="962"/>
  <unicode hex="003C"/>
  <outline>
    <contour>
      <point x="39" y="359" type="line"/>
      <point x="481.297" y="651.893" type="line"/>
      <point x="551.218" y="555.482" type="line"/>
      <point x="249" y="361" type="line"/>
      <point x="560.351" y="154.986" type="line"/>
      <point x="485.935" y="57.7284" type="line"/>
    </contour>
  </outline>
</glyph>
<glyph name="A" format="1">
  <advance width="798" height="962"/>
  <unicode hex="0041"/>
  <outline>
    <contour>
      <point x="773" y="0" type="line"/>
      <point x="585" y="0" type="line"/>
      <point x="545" y="115" type="line"/>
      <point x="252" y="115" type="line"/>
      <point x="215" y="0" type="line"/>
      <point x="26" y="0" type="line"/>
      <point x="261" y="700" type="line"/>
      <point x="534" y="700" type="line"/>
    </contour>
    <contour>
      <point x="306" y="272" type="line"/>
      <point x="491" y="272" type="line"/>
      <point x="398" y="554" type="line"/>
    </contour>
  </outline>
</glyph>
<glyph name="C" format="2">
  <advance width="606" height="962"/>
  <unicode hex="0043"/>
  <outline>
    <contour>
      <point x="513" y="534" type="line"/>
      <point x="454" y="543"/>
      <point x="414" y="549"/>
      <point x="343" y="549" type="curve" smooth="yes"/>
      <point x="289" y="549"/>
      <point x="215" y="546"/>
      <point x="215" y="494" type="curve" smooth="yes"/>
      <point x="215" y="207" type="line" smooth="yes"/>
      <point x="215" y="155"/>
      <point x="258" y="149"/>
      <point x="320" y="149" type="curve" smooth="yes"/>
      <point x="404" y="149"/>
      <point x="519" y="166"/>
      <point x="555" y="173" type="curve"/>
      <point x="579" y="23" type="line"/>
      <point x="492" y="1"/>
      <point x="411" y="-12"/>
      <point x="334" y="-12" type="curve" smooth="yes"/>
      <point x="148" y="-12"/>
      <point x="37" y="48"/>
      <point x="37" y="184" type="curve" smooth="yes"/>
      <point x="37" y="511" type="line" smooth="yes"/>
      <point x="37" y="653"/>
      <point x="162" y="712"/>
      <point x="327" y="712" type="curve" smooth="yes"/>
      <point x="399" y="712"/>
      <point x="471" y="701"/>
      <point x="543" y="677" type="curve"/>
    </contour>
  </outline>
</glyph>
<glyph name="E" format="2">
  <advance width="579"/>
  <unicode hex="0045"/>
  <outline>
    <contour>
      <point x="41" y="0" type="line"/>
      <point x="41" y="700" type="line"/>
      <point x="543" y="700" type="line"/>
      <point x="543" y="540" type="line"/>
      <point x="221" y="540" type="line"/>
      <point x="221" y="439" type="line"/>
      <point x="503" y="439" type="line"/>
      <point x="436" y="280" type="line"/>
      <point x="220" y="280" type="line"/>
      <point x="221" y="160" type="line"/>
      <point x="540" y="160" type="line"/>
      <point x="540" y="0" type="line"/>
    </contour>
  </outline>
</glyph>
<glyph name="F" format="1">
  <advance width="563" height="962"/>
  <unicode hex="0046"/>
  <outline>
    <contour>
      <point x="543" y="700" type="line"/>
      <point x="543" y="540" type="line"/>
      <point x="221" y="540" type="line"/>
      <point x="221" y="438" type="line"/>
      <point x="503" y="438" type="line"/>
      <point x="445" y="280" type="line"/>
      <point x="221" y="280" type="line"/>
      <point x="221" y="0" type="line"/>
      <point x="41" y="0" type="line"/>
      <point x="41" y="700" type="line"/>
    </contour>
  </outline>
</glyph>
<glyph name="J" format="2">
  <advance width="348" height="962"/>
  <unicode hex="004A"/>
  <outline>
    <contour>
      <point x="307" y="166" type="line" smooth="yes"/>
      <point x="307" y="52"/>
      <point x="257" y="-37"/>
      <point x="42" y="-37" type="curve"/>
      <point x="7" y="109" type="line"/>
      <point x="114" y="109"/>
      <point x="127" y="143"/>
      <point x="127" y="209" type="curve" smooth="yes"/>
      <point x="127" y="550" type="line"/>
      <point x="24" y="552" type="line"/>
      <point x="24" y="700" type="line"/>
      <point x="307" y="700" type="line"/>
    </contour>
  </outline>
</glyph>
<glyph name="O" format="1">
  <advance width="701" height="962"/>
  <unicode hex="004F"/>
  <outline>
    <contour>
      <point x="34" y="508" type="line" smooth="yes"/>
      <point x="34" y="644"/>
      <point x="156" y="717"/>
      <point x="354" y="717" type="curve" smooth="yes"/>
      <point x="552" y="717"/>
      <point x="667" y="638"/>
      <point x="667" y="507" type="curve" smooth="yes"/>
      <point x="667" y="186" type="line" smooth="yes"/>
      <point x="667" y="63"/>
      <point x="541" y="-11"/>
      <point x="352" y="-11" type="curve" smooth="yes"/>
      <point x="175" y="-11"/>
      <point x="34" y="56"/>
      <point x="34" y="186" type="curve" smooth="yes"/>
    </contour>
    <contour>
      <point x="210" y="223" type="line" smooth="yes"/>
      <point x="210" y="165"/>
      <point x="252" y="139"/>
      <point x="354" y="139" type="curve" smooth="yes"/>
      <point x="456" y="139"/>
      <point x="495" y="166"/>
      <point x="495" y="223" type="curve" smooth="yes"/>
      <point x="495" y="479" type="line" smooth="yes"/>
      <point x="495" y="541"/>
      <point x="450" y="563"/>
      <point x="348" y="563" type="curve" smooth="yes"/>
      <point x="246" y="563"/>
      <point x="210" y="542"/>
      <point x="210" y="478" type="curve" smooth="yes"/>
    </contour>
  </outline>
</glyph>
<glyph name="X" format="1">
  <advance width="910" height="962"/>
  <unicode hex="0058"/>
  <outline>
    <contour>
      <point x="453" y="491" type="line"/>
      <point x="633" y="700" type="line"/>
      <point x="867" y="700" type="line"/>
      <point x="570" y="361" type="line"/>
      <point x="888" y="0" type="line"/>
      <point x="652" y="0" type="line"/>
      <point x="454" y="228" type="line"/>
      <point x="252" y="0" type="line"/>
      <point x="19" y="0" type="line"/>
      <point x="335" y="362" type="line"/>
      <point x="37" y="700" type="line"/>
      <point x="273" y="700" type="line"/>
    </contour>
  </outline>
</glyph>
<glyph name="Z" format="2">
  <advance width="804" height="962"/>
  <unicode hex="005A"/>
  <outline>
    <contour>
      <point x="42" y="700" type="line"/>
      <point x="754" y="700" type="line"/>
      <point x="754" y="520" type="line"/>
      <point x="334.659" y="192.991" type="line"/>
      <point x="317" y="180" type="line"/>
      <point x="768" y="179" type="line"/>
      <point x="768" y="0" type="line"/>
      <point x="28" y="0" type="line"/>
      <point x="28" y="175.955" type="line"/>
      <point x="445.758" y="506.363" type="line"/>
      <point x="464" y="520" type="line"/>
      <point x="42" y="521" type="line"/>
    </contour>
  </outline>
</glyph>
<glyph name="bracketright" format="1">
  <advance width="353" height="962"/>
  <unicode hex="005D"/>
  <outline>
    <contour>
      <point x="47" y="-115" type="line"/>
      <point x="47" y="-9" type="line"/>
      <point x="122" y="1" type="line"/>
      <point x="122" y="703" type="line"/>
      <point x="47" y="713" type="line"/>
      <point x="47" y="819" type="line"/>
      <point x="288" y="819" type="line"/>
      <point x="288" y="-115" type="line"/>
    </contour>
  </outline>
</glyph>
<glyph name="asciicircum" format="1">
  <advance width="267" height="962"/>
  <unicode hex="005E"/>
  <outline>
    <contour>
      <point x="282" y="800" type="line"/>
      <point x="211" y="724" type="line"/>
      <point x="136" y="785" type="line"/>
      <point x="55" y="723" type="line"/>
      <point x="-14" y="803" type="line"/>
      <point x="134" y="921" type="line"/>
    </contour>
  </outline>
</glyph>
<glyph name="b" format="2">
  <advance width="651"/>
  <unicode hex="0062"/>
  <outline>
    <contour>
      <point x="220" y="496" type="line"/>
      <point x="269" y="503"/>
      <point x="350" y="510"/>
      <point x="395" y="510" type="curve" smooth="yes"/>
      <point x="528" y="510"/>
      <point x="618" y="458"/>
      <point x="618" y="356" type="curve" smooth="yes"/>
      <point x="618" y="167" type="line" smooth="yes"/>
      <point x="618" y="16"/>
      <point x="497" y="-11"/>
      <point x="326" y="-11" type="curve" smooth="yes"/>
      <point x="238" y="-11"/>
      <point x="131" y="-3"/>
      <point x="41" y="0" type="curve"/>
      <point x="41" y="700" type="line"/>
      <point x="220" y="700" type="line"/>
    </contour>
    <contour>
      <point x="220" y="166" type="line"/>
      <point x="220" y="166"/>
      <point x="307" y="161"/>
      <point x="340" y="161" type="curve" smooth="yes"/>
      <point x="424" y="161"/>
      <point x="439" y="180"/>
      <point x="439" y="215" type="curve" smooth="yes"/>
      <point x="439" y="303" type="line" smooth="yes"/>
      <point x="439" y="337"/>
      <point x="392" y="336"/>
      <point x="364" y="336" type="curve" smooth="yes"/>
      <point x="317" y="336"/>
      <point x="236" y="331"/>
      <point x="220" y="329" type="curve"/>
    </contour>
  </outline>
</glyph>
<glyph name="c" format="2">
  <advance width="545"/>
  <unicode hex="0063"/>
  <outline>
    <contour>
      <point x="468" y="322" type="line"/>
      <point x="440" y="329"/>
      <point x="383" y="335"/>
      <point x="336" y="336" type="curve" smooth="yes"/>
      <point x="266" y="337"/>
      <point x="212" y="330"/>
      <point x="212" y="281" type="curve" smooth="yes"/>
      <point x="212" y="225" type="line" smooth="yes"/>
      <point x="212" y="175"/>
      <point x="264" y="165"/>
      <point x="338" y="165" type="curve" smooth="yes"/>
      <point x="390" y="165"/>
      <point x="485" y="171"/>
      <point x="482" y="171" type="curve"/>
      <point x="516" y="5" type="line"/>
      <point x="455" y="-6"/>
      <point x="387" y="-13"/>
      <point x="320" y="-12" type="curve" smooth="yes"/>
      <point x="147" y="-8"/>
      <point x="32" y="45"/>
      <point x="32" y="174" type="curve" smooth="yes"/>
      <point x="32" y="320" type="line" smooth="yes"/>
      <point x="32" y="433"/>
      <point x="132" y="515"/>
      <point x="318" y="512" type="curve" smooth="yes"/>
      <point x="384" y="511"/>
      <point x="452" y="498"/>
      <point x="513" y="479" type="curve"/>
    </contour>
  </outline>
</glyph>
<glyph name="d" format="1">
  <advance width="654" height="962"/>
  <unicode hex="0064"/>
  <outline>
    <contour>
      <point x="606" y="0" type="line"/>
      <point x="516" y="-3"/>
      <point x="412" y="-11"/>
      <point x="324" y="-11" type="curve" smooth="yes"/>
      <point x="153" y="-11"/>
      <point x="28" y="15"/>
      <point x="28" y="156" type="curve" smooth="yes"/>
      <point x="28" y="360" type="line" smooth="yes"/>
      <point x="28" y="462"/>
      <point x="138" y="510"/>
      <point x="251" y="510" type="curve" smooth="yes"/>
      <point x="296" y="510"/>
      <point x="351" y="506"/>
      <point x="428" y="496" type="curve"/>
      <point x="428" y="700" type="line"/>
      <point x="606" y="700" type="line"/>
    </contour>
    <contour>
      <point x="428" y="331" type="line"/>
      <point x="384" y="335"/>
      <point x="330" y="337"/>
      <point x="296" y="337" type="curve" smooth="yes"/>
      <point x="230" y="337"/>
      <point x="210" y="318"/>
      <point x="210" y="287" type="curve" smooth="yes"/>
      <point x="210" y="221" type="line" smooth="yes"/>
      <point x="210" y="182"/>
      <point x="229" y="161"/>
      <point x="305" y="161" type="curve" smooth="yes"/>
      <point x="359" y="161"/>
      <point x="428" y="163"/>
      <point x="428" y="163" type="curve"/>
    </contour>
  </outline>
</glyph>
<glyph name="f" format="2">
  <advance width="475"/>
  <unicode hex="0066"/>
  <outline>
    <contour>
      <point x="402" y="534" type="line"/>
      <point x="375" y="538"/>
      <point x="330" y="541"/>
      <point x="309" y="541" type="curve" smooth="yes"/>
      <point x="263" y="541"/>
      <point x="221" y="542"/>
      <point x="221" y="512" type="curve" smooth="yes"/>
      <point x="221" y="501" type="line"/>
      <point x="419" y="501" type="line"/>
      <point x="373" y="321" type="line"/>
      <point x="221" y="321" type="line"/>
      <point x="221" y="0" type="line"/>
      <point x="40" y="0" type="line"/>
      <point x="40" y="523" type="line" smooth="yes"/>
      <point x="40" y="635"/>
      <point x="98" y="713"/>
      <point x="275" y="713" type="curve" smooth="yes"/>
      <point x="310" y="713"/>
      <point x="397" y="707"/>
      <point x="443" y="697" type="curve"/>
    </contour>
  </outline>
</glyph>
<glyph name="h" format="2">
  <advance width="654" height="962"/>
  <unicode hex="0068"/>
  <outline>
    <contour>
      <point x="218" y="478" type="line"/>
      <point x="277" y="497"/>
      <point x="349" y="511"/>
      <point x="413" y="511" type="curve" smooth="yes"/>
      <point x="518" y="511"/>
      <point x="618" y="465"/>
      <point x="618" y="336" type="curve" smooth="yes"/>
      <point x="618" y="0" type="line"/>
      <point x="440" y="0" type="line"/>
      <point x="440" y="297" type="line" smooth="yes"/>
      <point x="440" y="328"/>
      <point x="409" y="341"/>
      <point x="369" y="341" type="curve" smooth="yes"/>
      <point x="321" y="341"/>
      <point x="265" y="333"/>
      <point x="218" y="326" type="curve"/>
      <point x="218" y="0" type="line"/>
      <point x="38" y="0" type="line"/>
      <point x="38" y="700" type="line"/>
      <point x="218" y="700" type="line"/>
    </contour>
  </outline>
</glyph>
<glyph name="j" format="1">
  <advance width="360" height="962"/>
  <unicode hex="006A"/>
  <outline>
    <contour>
      <point x="312" y="-21" type="line" smooth="yes"/>
      <point x="312" y="-134"/>
      <point x="224" y="-216"/>
      <point x="67" y="-216" type="curve"/>
      <point x="22" y="-90" type="line"/>
      <point x="85" y="-87"/>
      <point x="132" y="-63"/>
      <point x="132" y="-14" type="curve" smooth="yes"/>
      <point x="132" y="353" type="line"/>
      <point x="28" y="361" type="line"/>
      <point x="28" y="501" type="line"/>
      <point x="312" y="501" type="line"/>
    </contour>
    <contour>
      <point x="312" y="651" type="curve" smooth="yes"/>
      <point x="312" y="603"/>
      <point x="271" y="562"/>
      <point x="222" y="562" type="curve" smooth="yes"/>
      <point x="171" y="562"/>
      <point x="131" y="603"/>
      <point x="131" y="651" type="curve" smooth="yes"/>
      <point x="131" y="702"/>
      <point x="171" y="739"/>
      <point x="222" y="739" type="curve" smooth="yes"/>
      <point x="271" y="739"/>
      <point x="312" y="702"/>
    </contour>
  </outline>
</glyph>
<glyph name="m" format="1">
  <advance width="1043" height="962"/>
  <unicode hex="006D"/>
  <outline>
    <contour>
      <point x="825" y="306" type="line" smooth="yes"/>
      <point x="825" y="349"/>
      <point x="763" y="346"/>
      <point x="727" y="346" type="curve" smooth="yes"/>
      <point x="677" y="346"/>
      <point x="617" y="322"/>
      <point x="608" y="318" type="curve"/>
      <point x="610" y="316"/>
      <point x="611" y="289"/>
      <point x="611" y="286" type="curve" smooth="yes"/>
      <point x="611" y="0" type="line"/>
      <point x="431" y="0" type="line"/>
      <point x="431" y="305" type="line" smooth="yes"/>
      <point x="431" y="348"/>
      <point x="377" y="344"/>
      <point x="347" y="344" type="curve" smooth="yes"/>
      <point x="295" y="344"/>
      <point x="227" y="328"/>
      <point x="218" y="325" type="curve"/>
      <point x="218" y="0" type="line"/>
      <point x="38" y="0" type="line"/>
      <point x="38" y="501" type="line"/>
      <point x="218" y="501" type="line"/>
      <point x="218" y="477" type="line"/>
      <point x="268" y="494"/>
      <point x="332" y="509"/>
      <point x="396" y="509" type="curve" smooth="yes"/>
      <point x="465" y="509"/>
      <point x="526" y="495"/>
      <point x="561" y="446" type="curve"/>
      <point x="623" y="483"/>
      <point x="712" y="509"/>
      <point x="797" y="509" type="curve" smooth="yes"/>
      <point x="915" y="509"/>
      <point x="1005" y="477"/>
      <point x="1005" y="345" type="curve" smooth="yes"/>
      <point x="1005" y="0" type="line"/>
      <point x="825" y="0" type="line"/>
    </contour>
  </outline>
</glyph>
<glyph name="q" format="2">
  <advance width="654"/>
  <unicode hex="0071"/>
  <outline>
    <contour>
      <point x="432" y="10" type="line"/>
      <point x="400" y="-1"/>
      <point x="351" y="-11"/>
      <point x="266" y="-11" type="curve" smooth="yes"/>
      <point x="134" y="-11"/>
      <point x="32" y="35"/>
      <point x="32" y="177" type="curve" smooth="yes"/>
      <point x="32" y="346" type="line" smooth="yes"/>
      <point x="32" y="469"/>
      <point x="123" y="512"/>
      <point x="238" y="512" type="curve" smooth="yes"/>
      <point x="306" y="512"/>
      <point x="379" y="500"/>
      <point x="432" y="479" type="curve"/>
      <point x="432" y="501" type="line"/>
      <point x="613" y="501" type="line"/>
      <point x="613" y="-213" type="line"/>
      <point x="432" y="-192" type="line"/>
    </contour>
    <contour>
      <point x="431" y="319" type="line"/>
      <point x="400" y="327"/>
      <point x="346" y="339"/>
      <point x="298" y="339" type="curve" smooth="yes"/>
      <point x="250" y="339"/>
      <point x="211" y="338"/>
      <point x="211" y="306" type="curve" smooth="yes"/>
      <point x="211" y="192" type="line" smooth="yes"/>
      <point x="211" y="165"/>
      <point x="241" y="155"/>
      <point x="311" y="155" type="curve" smooth="yes"/>
      <point x="392" y="155"/>
      <point x="431" y="167"/>
      <point x="431" y="182" type="curve" smooth="yes"/>
    </contour>
  </outline>
</glyph>
<glyph name="r" format="2">
  <advance width="528"/>
  <unicode hex="0072"/>
  <outline>
    <contour>
      <point x="487" y="332" type="line"/>
      <point x="487" y="332"/>
      <point x="451" y="339"/>
      <point x="416" y="339" type="curve" smooth="yes"/>
      <point x="353" y="339"/>
      <point x="279" y="331"/>
      <point x="219" y="311" type="curve"/>
      <point x="219" y="0" type="line"/>
      <point x="39" y="0" type="line"/>
      <point x="39" y="501" type="line"/>
      <point x="219" y="501" type="line"/>
      <point x="219" y="481" type="line"/>
      <point x="272" y="503"/>
      <point x="344" y="516"/>
      <point x="406" y="516" type="curve" smooth="yes"/>
      <point x="446" y="516"/>
      <point x="481" y="509"/>
      <point x="502" y="501" type="curve"/>
    </contour>
  </outline>
</glyph>
<glyph name="t" format="1">
  <advance width="458" height="962"/>
  <unicode hex="0074"/>
  <outline>
    <contour>
      <point x="221" y="218" type="line" smooth="yes"/>
      <point x="221" y="148"/>
      <point x="294" y="153"/>
      <point x="383" y="153" type="curve"/>
      <point x="315" y="-13" type="line"/>
      <point x="141" y="-11"/>
      <point x="40" y="56"/>
      <point x="40" y="169" type="curve" smooth="yes"/>
      <point x="40" y="700" type="line"/>
      <point x="221" y="700" type="line"/>
      <point x="221" y="500" type="line"/>
      <point x="430" y="500" type="line"/>
      <point x="403" y="321" type="line"/>
      <point x="221" y="321" type="line"/>
    </contour>
  </outline>
</glyph>
<glyph name="w" format="1">
  <advance width="1064" height="962"/>
  <unicode hex="0077"/>
  <outline>
    <contour>
      <point x="620" y="500" type="line"/>
      <point x="745" y="182" type="line"/>
      <point x="863" y="500" type="line"/>
      <point x="1044" y="500" type="line"/>
      <point x="841" y="0" type="line"/>
      <point x="647" y="0" type="line"/>
      <point x="533" y="281" type="line"/>
      <point x="417" y="0" type="line"/>
      <point x="226" y="0" type="line"/>
      <point x="21" y="500" type="line"/>
      <point x="203" y="500" type="line"/>
      <point x="322" y="182" type="line"/>
      <point x="446" y="500" type="line"/>
    </contour>
  </outline>
</glyph>
<glyph name="y" format="2">
  <advance width="695"/>
  <unicode hex="0079"/>
  <outline>
    <contour>
      <point x="663" y="393" type="line"/>
      <point x="621" y="385"/>
      <point x="618" y="366"/>
      <point x="618" y="322" type="curve" smooth="yes"/>
      <point x="618" y="-59" type="line" smooth="yes"/>
      <point x="618" y="-155"/>
      <point x="513" y="-214"/>
      <point x="363" y="-214" type="curve"/>
      <point x="296" y="-62" type="line"/>
      <point x="338" y="-62"/>
      <point x="439" y="-51"/>
      <point x="439" y="-9" type="curve" smooth="yes"/>
      <point x="439" y="14" type="line"/>
      <point x="377" y="-6"/>
      <point x="318" y="-10"/>
      <point x="246" y="-10" type="curve" smooth="yes"/>
      <point x="143" y="-10"/>
      <point x="37" y="30"/>
      <point x="37" y="159" type="curve" smooth="yes"/>
      <point x="37" y="503" type="line"/>
      <point x="217" y="503" type="line"/>
      <point x="217" y="200" type="line" smooth="yes"/>
      <point x="217" y="168"/>
      <point x="258" y="160"/>
      <point x="323" y="160" type="curve" smooth="yes"/>
      <point x="361" y="160"/>
      <point x="439" y="171"/>
      <point x="439" y="204" type="curve" smooth="yes"/>
      <point x="439" y="348" type="line" smooth="yes"/>
      <point x="439" y="460"/>
      <point x="511" y="512"/>
      <point x="612" y="512" type="curve"/>
    </contour>
  </outline>
</glyph>
<glyph name="z" format="1">
  <advance width="615" height="962"/>
  <unicode hex="007A"/>
  <outline>
    <contour>
      <point x="572" y="501" type="line"/>
      <point x="572" y="337" type="line"/>
      <point x="325" y="170" type="line"/>
      <point x="580" y="170" type="line"/>
      <point x="580" y="0" type="line"/>
      <point x="34" y="0" type="line"/>
      <point x="34" y="170" type="line"/>
      <point x="281" y="336" type="line"/>
      <point x="43" y="336" type="line"/>
      <point x="43" y="501" type="line"/>
    </contour>
  </outline>
</glyph>
<glyph name="bar" format="2">
  <advance width="294" height="962"/>
  <unicode hex="007C"/>
  <outline>
    <contour>
      <point x="63" y="-115" type="line"/>
      <point x="63" y="819" type="line"/>
      <point x="230" y="819" type="line"/>
      <point x="230" y="-115" type="line"/>
    </contour>
  </outline>
</glyph>
<glyph name="dieresis" format="2">
  <advance width="267" height="962"/>
  <unicode hex="00A8"/>
  <outline>
    <contour>
      <point x="44" y="788" type="curve" smooth="yes"/>
      <point x="88" y="788"/>
      <point x="123" y="752"/>
      <point x="123" y="710" type="curve" smooth="yes"/>
      <point x="123" y="667"/>
      <point x="88" y="631"/>
      <point x="44" y="631" type="curve" smooth="yes"/>
      <point x="1" y="631"/>
      <point x="-35" y="667"/>
      <point x="-35" y="710" type="curve" smooth="yes"/>
      <point x="-35" y="752"/>
      <point x="1" y="788"/>
    </contour>
    <contour>
      <point x="223" y="787" type="curve" smooth="yes"/>
      <point x="266" y="787"/>
      <point x="301" y="752"/>
      <point x="301" y="710" type="curve" smooth="yes"/>
      <point x="301" y="667"/>
      <point x="266" y="632"/>
      <point x="223" y="632" type="curve" smooth="yes"/>
      <point x="179" y="632"/>
      <point x="145" y="667"/>
      <point x="145" y="710" type="curve" smooth="yes"/>
      <point x="145" y="752"/>
      <point x="179" y="787"/>
    </contour>
  </outline>
</glyph>
<glyph name="copyright" format="1">
  <advance width="1270" height="962"/>
  <unicode hex="00A9"/>
  <outline>
    <contour>
      <point x="1239" y="177" type="line" smooth="yes"/>
      <point x="1239" y="-58"/>
      <point x="988" y="-146"/>
      <point x="634" y="-146" type="curve" smooth="yes"/>
      <point x="280" y="-146"/>
      <point x="31" y="-48"/>
      <point x="31" y="177" type="curve" smooth="yes"/>
      <point x="31" y="347" type="line" smooth="yes"/>
      <point x="31" y="553"/>
      <point x="280" y="667"/>
      <point x="634" y="667" type="curve" smooth="yes"/>
      <point x="988" y="667"/>
      <point x="1239" y="563"/>
      <point x="1239" y="347" type="curve" smooth="yes"/>
    </contour>
    <contour>
      <point x="1057" y="290" type="line" smooth="yes"/>
      <point x="1057" y="471"/>
      <point x="936" y="505"/>
      <point x="633" y="505" type="curve" smooth="yes"/>
      <point x="332" y="505"/>
      <point x="210" y="449"/>
      <point x="210" y="290" type="curve" smooth="yes"/>
      <point x="210" y="223" type="line" smooth="yes"/>
      <point x="210" y="72"/>
      <point x="332" y="11"/>
      <point x="633" y="11" type="curve" smooth="yes"/>
      <point x="936" y="11"/>
      <point x="1057" y="46"/>
      <point x="1057" y="223" type="curve" smooth="yes"/>
    </contour>
    <contour>
      <point x="835" y="300" type="line"/>
      <point x="836" y="300"/>
      <point x="728" y="312"/>
      <point x="653" y="312" type="curve" smooth="yes"/>
      <point x="582" y="312"/>
      <point x="522" y="303"/>
      <point x="522" y="261" type="curve" smooth="yes"/>
      <point x="522" y="228"/>
      <point x="555" y="208"/>
      <point x="639" y="208" type="curve" smooth="yes"/>
      <point x="729" y="208"/>
      <point x="809" y="218"/>
      <point x="843" y="222" type="curve"/>
      <point x="895" y="85" type="line"/>
      <point x="831" y="63"/>
      <point x="744" y="41"/>
      <point x="643" y="41" type="curve" smooth="yes"/>
      <point x="448" y="41"/>
      <point x="343" y="115"/>
      <point x="343" y="252" type="curve" smooth="yes"/>
      <point x="343" y="400"/>
      <point x="453" y="478"/>
      <point x="663" y="478" type="curve" smooth="yes"/>
      <point x="744" y="478"/>
      <point x="825" y="461"/>
      <point x="889" y="440" type="curve"/>
    </contour>
  </outline>
</glyph>
<glyph name="guillemotleft" format="2">
  <advance width="845"/>
  <unicode hex="00AB"/>
  <outline>
    <contour>
      <point x="590" y="268" type="line"/>
      <point x="770" y="384" type="line"/>
      <point x="698" y="481" type="line"/>
      <point x="380" y="268" type="line"/>
      <point x="690" y="60" type="line"/>
      <point x="768" y="149" type="line"/>
    </contour>
    <contour>
      <point x="258" y="268" type="line"/>
      <point x="438" y="384" type="line"/>
      <point x="368" y="481" type="line"/>
      <point x="48" y="268" type="line"/>
      <point x="360" y="60" type="line"/>
      <point x="437" y="149" type="line"/>
    </contour>
  </outline>
</glyph>
<glyph name="mu" format="2">
  <advance width="690"/>
  <unicode hex="00B5"/>
  <outline>
    <contour>
      <point x="624" y="188" type="line" smooth="yes"/>
      <point x="624" y="147"/>
      <point x="669" y="133"/>
      <point x="676" y="131" type="curve"/>
      <point x="621" y="-1" type="line"/>
      <point x="583" y="-5"/>
      <point x="511" y="5"/>
      <point x="481" y="29" type="curve"/>
      <point x="462" y="9"/>
      <point x="404" y="-9"/>
      <point x="347" y="-9" type="curve" smooth="yes"/>
      <point x="294" y="-9"/>
      <point x="237" y="-1"/>
      <point x="211" y="13" type="curve"/>
      <point x="221" y="-216" type="line"/>
      <point x="40" y="-192" type="line"/>
      <point x="40" y="501" type="line"/>
      <point x="220" y="501" type="line"/>
      <point x="220" y="208" type="line" smooth="yes"/>
      <point x="220" y="176"/>
      <point x="265" y="163"/>
      <point x="333" y="163" type="curve" smooth="yes"/>
      <point x="412" y="163"/>
      <point x="443" y="179"/>
      <point x="443" y="210" type="curve" smooth="yes"/>
      <point x="443" y="498" type="line"/>
      <point x="624" y="511" type="line"/>
    </contour>
  </outline>
</glyph>
<glyph name="questiondown" format="1">
  <advance width="612" height="962"/>
  <unicode hex="00BF"/>
  <outline>
    <contour>
      <point x="582" y="179" type="line"/>
      <point x="582" y="45"/>
      <point x="460" y="-18"/>
      <point x="310" y="-18" type="curve" smooth="yes"/>
      <point x="154" y="-18"/>
      <point x="25" y="55"/>
      <point x="25" y="169" type="curve" smooth="yes"/>
      <point x="25" y="254"/>
      <point x="80" y="283"/>
      <point x="144" y="336" type="curve" smooth="yes"/>
      <point x="219" y="398"/>
      <point x="240" y="409"/>
      <point x="240" y="481" type="curve" smooth="yes"/>
      <point x="240" y="522" type="line"/>
      <point x="419" y="522" type="line"/>
      <point x="419" y="479" type="line" smooth="yes"/>
      <point x="419" y="383"/>
      <point x="372" y="318"/>
      <point x="315" y="273" type="curve" smooth="yes"/>
      <point x="261" y="229"/>
      <point x="204" y="200"/>
      <point x="204" y="167" type="curve" smooth="yes"/>
      <point x="204" y="141"/>
      <point x="228" y="117"/>
      <point x="306" y="117" type="curve" smooth="yes"/>
      <point x="378" y="117"/>
      <point x="407" y="142"/>
      <point x="407" y="179" type="curve"/>
    </contour>
    <contour>
      <point x="329" y="710" type="curve" smooth="yes"/>
      <point x="373" y="710"/>
      <point x="407" y="675"/>
      <point x="407" y="632" type="curve" smooth="yes"/>
      <point x="407" y="590"/>
      <point x="373" y="555"/>
      <point x="329" y="555" type="curve" smooth="yes"/>
      <point x="286" y="555"/>
      <point x="251" y="590"/>
      <point x="251" y="632" type="curve" smooth="yes"/>
      <point x="251" y="675"/>
      <point x="286" y="710"/>
    </contour>
  </outline>
</glyph>
<glyph name="AE" format="2">
  <advance width="1122" height="962"/>
  <unicode hex="00C6"/>
  <outline>
    <contour>
      <point x="589" y="0" type="line"/>
      <point x="589" y="263" type="line"/>
      <point x="375" y="262" type="line"/>
      <point x="219" y="0" type="line"/>
      <point x="22" y="0" type="line"/>
      <point x="430" y="700" type="line"/>
      <point x="1091" y="700" type="line"/>
      <point x="1091" y="540" type="line"/>
      <point x="767" y="540" type="line"/>
      <point x="767" y="420" type="line"/>
      <point x="1010" y="420" type="line"/>
      <point x="959" y="262" type="line"/>
      <point x="767" y="262" type="line"/>
      <point x="767" y="179" type="line"/>
      <point x="1088" y="179" type="line"/>
      <point x="1088" y="0" type="line"/>
    </contour>
    <contour>
      <point x="465.03" y="420" type="line"/>
      <point x="587" y="420" type="line"/>
      <point x="587" y="539" type="line"/>
      <point x="535" y="539" type="line"/>
    </contour>
  </outline>
  <guideline angle="0" x="0" y="300"/>
</glyph>
<glyph name="Eth" format="2">
  <advance width="711" height="962"/>
  <unicode hex="00D0"/>
  <outline>
    <component base="D"/>
    <contour>
      <point x="183" y="269" type="line"/>
      <point x="183" y="414" type="line"/>
      <point x="393" y="414" type="line"/>
      <point x="374" y="269" type="line"/>
    </contour>
  </outline>
</glyph>
<glyph name="eth" format="2">
  <advance width="636"/>
  <unicode hex="00F0"/>
  <outline>
    <contour>
      <point x="444" y="660" type="curve"/>
      <point x="521" y="711" type="line"/>
      <point x="562" y="654" type="line"/>
      <point x="518" y="624" type="line"/>
      <point x="568" y="601"/>
      <point x="608" y="531"/>
      <point x="608" y="481" type="curve" smooth="yes"/>
      <point x="608" y="190" type="line" smooth="yes"/>
      <point x="608" y="43"/>
      <point x="504" y="-9"/>
      <point x="311" y="-9" type="curve" smooth="yes"/>
      <point x="129" y="-9"/>
      <point x="27" y="45"/>
      <point x="27" y="187" type="curve" smooth="yes"/>
      <point x="27" y="246" type="line" smooth="yes"/>
      <point x="27" y="389"/>
      <point x="107" y="438"/>
      <point x="240" y="438" type="curve" smooth="yes"/>
      <point x="310" y="438"/>
      <point x="375" y="435"/>
      <point x="427" y="428" type="curve"/>
      <point x="427" y="481" type="line" smooth="yes"/>
      <point x="427" y="504"/>
      <point x="411" y="522"/>
      <point x="387" y="537" type="curve"/>
      <point x="295" y="475" type="line"/>
      <point x="252" y="532" type="line"/>
      <point x="308" y="570" type="line"/>
      <point x="261" y="583"/>
      <point x="218" y="589"/>
      <point x="219" y="589" type="curve"/>
      <point x="264" y="702" type="line"/>
      <point x="331" y="693"/>
      <point x="393" y="679"/>
    </contour>
    <contour>
      <point x="319" y="158" type="curve" smooth="yes"/>
      <point x="388" y="158"/>
      <point x="428" y="163"/>
      <point x="428" y="197" type="curve" smooth="yes"/>
      <point x="428" y="256" type="line" smooth="yes"/>
      <point x="428" y="289"/>
      <point x="388" y="291"/>
      <point x="319" y="291" type="curve" smooth="yes"/>
      <point x="256" y="291"/>
      <point x="208" y="288"/>
      <point x="208" y="256" type="curve" smooth="yes"/>
      <point x="208" y="197" type="line" smooth="yes"/>
      <point x="208" y="163"/>
      <point x="245" y="158"/>
    </contour>
  </outline>
</glyph>
<glyph name="IJ" format="1">
  <advance width="783" height="962"/>
  <unicode hex="0132"/>
  <outline>
    <contour>
      <point x="754" y="700" type="line"/>
      <point x="754" y="191" type="line" smooth="yes"/>
      <point x="754" y="62"/>
      <point x="625" y="-11"/>
      <point x="439" y="-11" type="curve" smooth="yes"/>
      <point x="254" y="-11"/>
      <point x="121" y="57"/>
      <point x="121" y="186" type="curve" smooth="yes"/>
      <point x="121" y="258" type="line"/>
      <point x="301" y="258" type="line"/>
      <point x="301" y="216" type="line" smooth="yes"/>
      <point x="301" y="170"/>
      <point x="348" y="159"/>
      <point x="436" y="159" type="curve" smooth="yes"/>
      <point x="524" y="159"/>
      <point x="574" y="172"/>
      <point x="574" y="217" type="curve" smooth="yes"/>
      <point x="574" y="550" type="line"/>
      <point x="471" y="552" type="line"/>
      <point x="471" y="700" type="line"/>
    </contour>
    <contour>
      <point x="301" y="700" type="line"/>
      <point x="301" y="285" type="line"/>
      <point x="121" y="285" type="line"/>
      <point x="121" y="550" type="line"/>
      <point x="19" y="552" type="line"/>
      <point x="19" y="700" type="line"/>
    </contour>
  </outline>
</glyph>
<glyph name="Tbar" format="2">
  <advance width="635"/>
  <unicode hex="0166"/>
  <outline>
    <component base="T"/>
    <contour>
      <point x="13" y="414" type="line"/>
      <point x="619" y="414" type="line"/>
      <point x="619" y="296" type="line"/>
      <point x="13" y="296" type="line"/>
    </contour>
  </outline>
</glyph>
<glyph name="dotlessj" format="1">
  <advance width="352" height="962"/>
  <unicode hex="0237"/>
  <outline>
    <contour>
      <point x="312" y="-21" type="line" smooth="yes"/>
      <point x="312" y="-134"/>
      <point x="224" y="-216"/>
      <point x="67" y="-216" type="curve"/>
      <point x="22" y="-90" type="line"/>
      <point x="85" y="-87"/>
      <point x="132" y="-63"/>
      <point x="132" y="-14" type="curve" smooth="yes"/>
      <point x="132" y="353" type="line"/>
      <point x="28" y="361" type="line"/>
      <point x="28" y="501" type="line"/>
      <point x="312" y="501" type="line"/>
    </contour>
  </outline>
</glyph>
<glyph name="breve" format="1">
  <advance width="267" height="962"/>
  <unicode hex="02D8"/>
  <outline>
    <contour>
      <point x="272" y="733" type="line"/>
      <point x="272" y="724" type="line" smooth="yes"/>
      <point x="272" y="650"/>
      <point x="209" y="587"/>
      <point x="134" y="587" type="curve" smooth="yes"/>
      <point x="57" y="587"/>
      <point x="-6" y="650"/>
      <point x="-6" y="724" type="curve" smooth="yes"/>
      <point x="-6" y="733" type="line"/>
      <point x="114" y="733" type="line"/>
      <point x="114" y="729" type="line" smooth="yes"/>
      <point x="114" y="719"/>
      <point x="123" y="708"/>
      <point x="134" y="708" type="curve" smooth="yes"/>
      <point x="145" y="708"/>
      <point x="154" y="719"/>
      <point x="154" y="729" type="curve" smooth="yes"/>
      <point x="154" y="733" type="line"/>
    </contour>
  </outline>
</glyph>
<glyph name="tildecomb" format="1">
  <advance width="322" height="962"/>
  <unicode hex="0303"/>
  <outline>
    <contour>
      <point x="197" y="740" type="line"/>
      <point x="294" y="740" type="line"/>
      <point x="294" y="702" type="line" smooth="yes"/>
      <point x="294" y="652"/>
      <point x="270" y="604"/>
      <point x="202" y="604" type="curve" smooth="yes"/>
      <point x="174" y="604"/>
      <point x="157" y="610"/>
      <point x="143" y="616" type="curve" smooth="yes"/>
      <point x="137" y="618"/>
      <point x="117" y="627"/>
      <point x="111" y="630" type="curve" smooth="yes"/>
      <point x="101" y="635"/>
      <point x="91" y="638"/>
      <point x="84" y="638" type="curve" smooth="yes"/>
      <point x="69" y="638"/>
      <point x="69" y="628"/>
      <point x="69" y="617" type="curve" smooth="yes"/>
      <point x="69" y="603" type="line"/>
      <point x="-28" y="603" type="line"/>
      <point x="-28" y="621" type="line" smooth="yes"/>
      <point x="-28" y="660"/>
      <point x="-25" y="709"/>
      <point x="26" y="732" type="curve" smooth="yes"/>
      <point x="49" y="742"/>
      <point x="79" y="747"/>
      <point x="122" y="730" type="curve" smooth="yes"/>
      <point x="135" y="725"/>
      <point x="141" y="721"/>
      <point x="155" y="715" type="curve" smooth="yes"/>
      <point x="164" y="711"/>
      <point x="171" y="707"/>
      <point x="183" y="707" type="curve" smooth="yes"/>
      <point x="197" y="707"/>
      <point x="197" y="718"/>
      <point x="197" y="727" type="curve" smooth="yes"/>
    </contour>
  </outline>
</glyph>
<glyph name="tonos" format="1">
  <advance width="267" height="962"/>
  <unicode hex="0384"/>
  <outline>
    <contour>
      <point x="197" y="665" type="curve" smooth="yes"/>
      <point x="145" y="598" type="line"/>
      <point x="56" y="598" type="line"/>
      <point x="87" y="715" type="line" smooth="yes"/>
      <point x="96" y="750"/>
      <point x="140" y="785"/>
      <point x="184" y="762" type="curve" smooth="yes"/>
      <point x="225" y="741"/>
      <point x="218" y="692"/>
    </contour>
  </outline>
</glyph>
<glyph name="Deltagreek" format="2">
  <advance width="785"/>
  <unicode hex="0394"/>
  <outline>
    <contour>
      <point x="764" y="0" type="line"/>
      <point x="22" y="0" type="line"/>
      <point x="255" y="700" type="line"/>
      <point x="529" y="700" type="line"/>
    </contour>
    <contour>
      <point x="254" y="139" type="line"/>
      <point x="534" y="139" type="line"/>
      <point x="395" y="562" type="line"/>
    </contour>
  </outline>
</glyph>
<glyph name="Lambda" format="1">
  <advance width="783" height="962"/>
  <unicode hex="039B"/>
  <outline>
    <contour>
      <point x="395" y="562" type="line"/>
      <point x="205" y="0" type="line"/>
      <point x="20" y="0" type="line"/>
      <point x="255" y="700" type="line"/>
      <point x="529" y="700" type="line"/>
      <point x="763" y="0" type="line"/>
      <point x="581" y="0" type="line"/>
    </contour>
  </outline>
</glyph>
<glyph name="Xi" format="1">
  <advance width="829" height="962"/>
  <unicode hex="039E"/>
  <outline>
    <contour>
      <point x="24" y="626" type="line"/>
      <point x="71" y="682"/>
      <point x="146" y="700"/>
      <point x="245" y="700" type="curve" smooth="yes"/>
      <point x="752" y="700" type="line"/>
      <point x="721" y="520" type="line"/>
      <point x="276" y="520" type="line" smooth="yes"/>
      <point x="215" y="520"/>
      <point x="179" y="520"/>
      <point x="132" y="495" type="curve"/>
    </contour>
    <contour>
      <point x="614" y="270" type="line"/>
      <point x="215" y="270" type="line"/>
      <point x="215" y="428" type="line"/>
      <point x="614" y="428" type="line"/>
    </contour>
    <contour>
      <point x="513" y="179" type="line" smooth="yes"/>
      <point x="594" y="179"/>
      <point x="656" y="180"/>
      <point x="690" y="215" type="curve"/>
      <point x="801" y="77" type="line"/>
      <point x="755" y="20"/>
      <point x="669" y="0"/>
      <point x="573" y="0" type="curve" smooth="yes"/>
      <point x="64" y="0" type="line"/>
      <point x="96" y="179" type="line"/>
    </contour>
  </outline>
</glyph>
<glyph name="Sigma" format="2">
  <advance width="780" height="962"/>
  <unicode hex="03A3"/>
  <outline>
    <contour>
      <point x="539" y="161" type="line" smooth="yes"/>
      <point x="588" y="161"/>
      <point x="609" y="163"/>
      <point x="623" y="191" type="curve"/>
      <point x="763" y="107" type="line"/>
      <point x="724" y="36"/>
      <point x="632" y="0"/>
      <point x="514" y="0" type="curve" smooth="yes"/>
      <point x="28" y="0" type="line"/>
      <point x="247" y="374" type="line"/>
      <point x="52" y="701" type="line"/>
      <point x="697" y="701" type="line"/>
      <point x="645" y="553" type="line"/>
      <point x="340" y="553" type="line"/>
      <point x="445" y="376" type="line"/>
      <point x="315" y="161" type="line"/>
    </contour>
  </outline>
</glyph>
<glyph name="Upsilon" format="1">
  <advance width="737" height="962"/>
  <unicode hex="03A5"/>
  <outline>
    <contour>
      <point x="696" y="157" type="line" smooth="yes"/>
      <point x="696" y="51"/>
      <point x="616" y="-8"/>
      <point x="423" y="-19" type="curve"/>
      <point x="371" y="120" type="line"/>
      <point x="422" y="121"/>
      <point x="527" y="129"/>
      <point x="527" y="176" type="curve" smooth="yes"/>
      <point x="527" y="244" type="line"/>
      <point x="490" y="217"/>
      <point x="389" y="203"/>
      <point x="317" y="203" type="curve" smooth="yes"/>
      <point x="153" y="203"/>
      <point x="30" y="273"/>
      <point x="30" y="405" type="curve" smooth="yes"/>
      <point x="30" y="700" type="line"/>
      <point x="213" y="700" type="line"/>
      <point x="213" y="441" type="line" smooth="yes"/>
      <point x="213" y="391"/>
      <point x="245" y="369"/>
      <point x="359" y="369" type="curve" smooth="yes"/>
      <point x="441" y="369"/>
      <point x="515" y="390"/>
      <point x="515" y="429" type="curve" smooth="yes"/>
      <point x="515" y="700" type="line"/>
      <point x="696" y="700" type="line"/>
    </contour>
  </outline>
</glyph>
<glyph name="Chi" format="1">
  <advance width="910" height="962"/>
  <unicode hex="03A7"/>
  <outline>
    <contour>
      <point x="453" y="491" type="line"/>
      <point x="633" y="700" type="line"/>
      <point x="867" y="700" type="line"/>
      <point x="570" y="361" type="line"/>
      <point x="888" y="0" type="line"/>
      <point x="652" y="0" type="line"/>
      <point x="454" y="228" type="line"/>
      <point x="252" y="0" type="line"/>
      <point x="19" y="0" type="line"/>
      <point x="335" y="362" type="line"/>
      <point x="37" y="700" type="line"/>
      <point x="273" y="700" type="line"/>
    </contour>
  </outline>
</glyph>
<glyph name="iotatonos" format="1">
  <advance width="258" height="962"/>
  <unicode hex="03AF"/>
  <outline>
    <component base="dotlessi"/>
    <contour>
      <point x="224" y="620" type="curve" smooth="yes"/>
      <point x="172" y="553" type="line"/>
      <point x="83" y="553" type="line"/>
      <point x="114" y="670" type="line" smooth="yes"/>
      <point x="123" y="705"/>
      <point x="167" y="740"/>
      <point x="211" y="717" type="curve" smooth="yes"/>
      <point x="252" y="696"/>
      <point x="245" y="647"/>
    </contour>
  </outline>
</glyph>
<glyph name="gamma" format="2">
  <advance width="750" height="962"/>
  <unicode hex="03B3"/>
  <outline>
    <contour>
      <point x="721" y="409" type="line"/>
      <point x="667" y="393"/>
      <point x="636" y="381"/>
      <point x="620" y="314" type="curve" smooth="yes"/>
      <point x="542" y="-11" type="line" smooth="yes"/>
      <point x="513" y="-130"/>
      <point x="436" y="-223"/>
      <point x="170" y="-203" type="curve"/>
      <point x="122" y="-31" type="line"/>
      <point x="193" y="-31"/>
      <point x="329" y="-42"/>
      <point x="337" y="-7" type="curve" smooth="yes"/>
      <point x="343" y="19" type="line"/>
      <point x="228" y="27"/>
      <point x="144" y="70"/>
      <point x="108" y="198" type="curve" smooth="yes"/>
      <point x="23" y="501" type="line"/>
      <point x="218" y="501" type="line"/>
      <point x="284" y="237" type="line" smooth="yes"/>
      <point x="302" y="167"/>
      <point x="388" y="182"/>
      <point x="388" y="182" type="curve"/>
      <point x="435" y="357" type="line" smooth="yes"/>
      <point x="465" y="468"/>
      <point x="507" y="526"/>
      <point x="655" y="531" type="curve"/>
    </contour>
  </outline>
</glyph>
<glyph name="epsilon" format="1">
  <advance width="574" height="962"/>
  <unicode hex="03B5"/>
  <outline>
    <contour>
      <point x="461" y="359" type="line"/>
      <point x="367" y="363"/>
      <point x="288" y="366"/>
      <point x="255" y="362" type="curve" smooth="yes"/>
      <point x="240" y="360"/>
      <point x="229" y="356"/>
      <point x="229" y="345" type="curve" smooth="yes"/>
      <point x="229" y="333"/>
      <point x="234" y="326"/>
      <point x="250" y="326" type="curve" smooth="yes"/>
      <point x="458" y="326" type="line"/>
      <point x="402" y="189" type="line"/>
      <point x="282" y="189" type="line" smooth="yes"/>
      <point x="230" y="189"/>
      <point x="218" y="185"/>
      <point x="218" y="169" type="curve" smooth="yes"/>
      <point x="218" y="150"/>
      <point x="250" y="150"/>
      <point x="294" y="150" type="curve" smooth="yes"/>
      <point x="380" y="150"/>
      <point x="474" y="161"/>
      <point x="505" y="171" type="curve"/>
      <point x="549" y="23" type="line"/>
      <point x="469" y="1"/>
      <point x="378" y="-11"/>
      <point x="285" y="-11" type="curve" smooth="yes"/>
      <point x="107" y="-11"/>
      <point x="21" y="56"/>
      <point x="21" y="149" type="curve" smooth="yes"/>
      <point x="21" y="202"/>
      <point x="44" y="250"/>
      <point x="99" y="277" type="curve"/>
      <point x="59" y="303"/>
      <point x="42" y="352"/>
      <point x="51" y="393" type="curve" smooth="yes"/>
      <point x="63" y="453"/>
      <point x="123" y="509"/>
      <point x="272" y="512" type="curve" smooth="yes"/>
      <point x="326" y="513"/>
      <point x="383" y="507"/>
      <point x="441" y="497" type="curve"/>
    </contour>
  </outline>
</glyph>
<glyph name="theta" format="2">
  <advance width="653"/>
  <unicode hex="03B8"/>
  <outline>
    <contour>
      <point x="318" y="710" type="curve" smooth="yes"/>
      <point x="516" y="710"/>
      <point x="616" y="633"/>
      <point x="616" y="506" type="curve" smooth="yes"/>
      <point x="616" y="190" type="line" smooth="yes"/>
      <point x="616" y="63"/>
      <point x="523" y="-12"/>
      <point x="327" y="-12" type="curve" smooth="yes"/>
      <point x="133" y="-12"/>
      <point x="34" y="65"/>
      <point x="34" y="190" type="curve" smooth="yes"/>
      <point x="34" y="288" type="line" smooth="yes"/>
      <point x="34" y="366"/>
      <point x="69" y="391"/>
      <point x="105" y="412" type="curve"/>
      <point x="61" y="457"/>
      <point x="51" y="487"/>
      <point x="51" y="543" type="curve" smooth="yes"/>
      <point x="51" y="644"/>
      <point x="160" y="710"/>
    </contour>
    <contour>
      <point x="436" y="508" type="line" smooth="yes"/>
      <point x="436" y="528"/>
      <point x="400" y="540"/>
      <point x="327" y="540" type="curve" smooth="yes"/>
      <point x="259" y="540"/>
      <point x="236" y="531"/>
      <point x="236" y="517" type="curve" smooth="yes"/>
      <point x="236" y="506"/>
      <point x="246" y="497"/>
      <point x="292" y="483" type="curve" smooth="yes"/>
      <point x="318" y="475"/>
      <point x="372" y="467"/>
      <point x="436" y="464" type="curve"/>
    </contour>
    <contour>
      <point x="324" y="160" type="curve" smooth="yes"/>
      <point x="402" y="160"/>
      <point x="436" y="182"/>
      <point x="436" y="214" type="curve" smooth="yes"/>
      <point x="436" y="304" type="line"/>
      <point x="384" y="305"/>
      <point x="299" y="310"/>
      <point x="241" y="334" type="curve"/>
      <point x="224" y="326"/>
      <point x="214" y="312"/>
      <point x="214" y="289" type="curve" smooth="yes"/>
      <point x="214" y="214" type="line" smooth="yes"/>
      <point x="214" y="182"/>
      <point x="246" y="160"/>
    </contour>
  </outline>
  <guideline angle="0" x="0" y="816"/>
</glyph>
<glyph name="nu" format="1">
  <advance width="681" height="962"/>
  <unicode hex="03BD"/>
  <outline>
    <contour>
      <point x="22" y="501" type="line"/>
      <point x="206" y="501" type="line"/>
      <point x="343" y="163" type="line"/>
      <point x="473" y="501" type="line"/>
      <point x="656" y="501" type="line"/>
      <point x="444" y="0" type="line"/>
      <point x="238" y="0" type="line"/>
    </contour>
  </outline>
</glyph>
<glyph name="xi" format="1">
  <advance width="657" height="962"/>
  <unicode hex="03BE"/>
  <outline>
    <contour>
      <point x="565" y="522" type="line"/>
      <point x="336" y="522" type="line" smooth="yes"/>
      <point x="313" y="522"/>
      <point x="304" y="515"/>
      <point x="304" y="500" type="curve" smooth="yes"/>
      <point x="304" y="480"/>
      <point x="328" y="454"/>
      <point x="398" y="453" type="curve" smooth="yes"/>
      <point x="588" y="450" type="line"/>
      <point x="539" y="271" type="line"/>
      <point x="269" y="271" type="line" smooth="yes"/>
      <point x="235" y="271"/>
      <point x="211" y="267"/>
      <point x="211" y="235" type="curve" smooth="yes"/>
      <point x="211" y="205" type="line" smooth="yes"/>
      <point x="211" y="180"/>
      <point x="237" y="169"/>
      <point x="282" y="169" type="curve" smooth="yes"/>
      <point x="360" y="169"/>
      <point x="531" y="170"/>
      <point x="609" y="170" type="curve"/>
      <point x="609" y="-217" type="line"/>
      <point x="428" y="-192" type="line"/>
      <point x="428" y="-7" type="line"/>
      <point x="352" y="-9"/>
      <point x="292" y="-10"/>
      <point x="232" y="-10" type="curve" smooth="yes"/>
      <point x="139" y="-10"/>
      <point x="30" y="29"/>
      <point x="30" y="156" type="curve" smooth="yes"/>
      <point x="30" y="266" type="line" smooth="yes"/>
      <point x="30" y="368"/>
      <point x="96" y="415"/>
      <point x="177" y="415" type="curve" smooth="yes"/>
      <point x="195" y="415" type="line"/>
      <point x="130" y="451"/>
      <point x="115" y="507"/>
      <point x="115" y="546" type="curve" smooth="yes"/>
      <point x="115" y="652"/>
      <point x="199" y="702"/>
      <point x="319" y="702" type="curve" smooth="yes"/>
      <point x="611" y="702" type="line"/>
    </contour>
  </outline>
</glyph>
<glyph name="rho" format="1">
  <advance width="649" height="962"/>
  <unicode hex="03C1"/>
  <outline>
    <contour>
      <point x="617" y="171" type="line" smooth="yes"/>
      <point x="617" y="49"/>
      <point x="505" y="-17"/>
      <point x="384" y="-17" type="curve" smooth="yes"/>
      <point x="319" y="-17"/>
      <point x="266" y="-14"/>
      <point x="216" y="-1" type="curve"/>
      <point x="216" y="-217" type="line"/>
      <point x="36" y="-193" type="line"/>
      <point x="36" y="312" type="line" smooth="yes"/>
      <point x="36" y="459"/>
      <point x="136" y="508"/>
      <point x="328" y="508" type="curve" smooth="yes"/>
      <point x="508" y="508"/>
      <point x="617" y="434"/>
      <point x="617" y="312" type="curve" smooth="yes"/>
    </contour>
    <contour>
      <point x="438" y="287" type="line" smooth="yes"/>
      <point x="438" y="318"/>
      <point x="394" y="334"/>
      <point x="324" y="334" type="curve" smooth="yes"/>
      <point x="259" y="334"/>
      <point x="216" y="322"/>
      <point x="216" y="297" type="curve" smooth="yes"/>
      <point x="216" y="193" type="line" smooth="yes"/>
      <point x="216" y="162"/>
      <point x="291" y="157"/>
      <point x="340" y="157" type="curve" smooth="yes"/>
      <point x="405" y="157"/>
      <point x="438" y="172"/>
      <point x="438" y="207" type="curve" smooth="yes"/>
    </contour>
  </outline>
</glyph>
<glyph name="sigma1" format="1">
  <advance width="525" height="962"/>
  <unicode hex="03C2"/>
  <outline>
    <contour>
      <point x="207" y="257" type="line" smooth="yes"/>
      <point x="207" y="213"/>
      <point x="263" y="192"/>
      <point x="309" y="167" type="curve" smooth="yes"/>
      <point x="358" y="140" type="line" smooth="yes"/>
      <point x="393" y="121"/>
      <point x="459" y="77"/>
      <point x="459" y="-1" type="curve" smooth="yes"/>
      <point x="459" y="-61"/>
      <point x="431" y="-114"/>
      <point x="387" y="-148" type="curve"/>
      <point x="253" y="-83" type="line"/>
      <point x="266" y="-73"/>
      <point x="275" y="-57"/>
      <point x="275" y="-39" type="curve" smooth="yes"/>
      <point x="275" y="-17"/>
      <point x="264" y="2"/>
      <point x="227" y="24" type="curve" smooth="yes"/>
      <point x="151" y="70" type="line" smooth="yes"/>
      <point x="117" y="90"/>
      <point x="27" y="129"/>
      <point x="27" y="219" type="curve" smooth="yes"/>
      <point x="27" y="340" type="line" smooth="yes"/>
      <point x="27" y="428"/>
      <point x="107" y="507"/>
      <point x="293" y="507" type="curve" smooth="yes"/>
      <point x="354" y="507"/>
      <point x="420" y="495"/>
      <point x="471" y="471" type="curve"/>
      <point x="430" y="318" type="line"/>
      <point x="399" y="324"/>
      <point x="357" y="332"/>
      <point x="300" y="332" type="curve" smooth="yes"/>
      <point x="217" y="332"/>
      <point x="207" y="302"/>
      <point x="207" y="285" type="curve" smooth="yes"/>
    </contour>
  </outline>
</glyph>
<glyph name="upsilon" format="1">
  <advance width="654" height="962"/>
  <unicode hex="03C5"/>
  <outline>
    <contour>
      <point x="617" y="185" type="line" smooth="yes"/>
      <point x="617" y="67"/>
      <point x="523" y="-10"/>
      <point x="334" y="-10" type="curve" smooth="yes"/>
      <point x="125" y="-10"/>
      <point x="37" y="83"/>
      <point x="37" y="185" type="curve" smooth="yes"/>
      <point x="37" y="501" type="line"/>
      <point x="217" y="501" type="line"/>
      <point x="217" y="210" type="line" smooth="yes"/>
      <point x="217" y="177"/>
      <point x="251" y="158"/>
      <point x="332" y="158" type="curve" smooth="yes"/>
      <point x="403" y="158"/>
      <point x="436" y="176"/>
      <point x="436" y="210" type="curve" smooth="yes"/>
      <point x="436" y="501" type="line"/>
      <point x="617" y="501" type="line"/>
    </contour>
  </outline>
</glyph>
<glyph name="uni0402" format="1">
  <advance width="853" height="962"/>
  <unicode hex="0402"/>
  <outline>
    <component base="T" xOffset="10.5"/>
    <contour>
      <point x="597" y="510" type="curve" smooth="yes"/>
      <point x="715" y="510"/>
      <point x="822" y="474"/>
      <point x="822" y="345" type="curve" smooth="yes"/>
      <point x="822" y="131" type="line" smooth="yes"/>
      <point x="822" y="37"/>
      <point x="746" y="-12"/>
      <point x="593" y="-14" type="curve"/>
      <point x="554" y="139" type="line"/>
      <point x="605" y="139"/>
      <point x="641" y="146"/>
      <point x="641" y="174" type="curve" smooth="yes"/>
      <point x="641" y="294" type="line"/>
      <point x="641" y="327"/>
      <point x="629" y="350"/>
      <point x="539" y="350" type="curve" smooth="yes"/>
      <point x="512" y="350"/>
      <point x="440" y="347"/>
      <point x="412" y="344" type="curve"/>
      <point x="412" y="485" type="line"/>
      <point x="455" y="501"/>
      <point x="529" y="510"/>
    </contour>
  </outline>
</glyph>
<glyph name="uni040A" format="1">
  <advance width="1211" height="962"/>
  <unicode hex="040A"/>
  <outline>
    <contour>
      <point x="982" y="436" type="line" smooth="yes"/>
      <point x="1091" y="436"/>
      <point x="1181" y="392"/>
      <point x="1181" y="290" type="curve" smooth="yes"/>
      <point x="1181" y="157" type="line" smooth="yes"/>
      <point x="1181" y="28"/>
      <point x="1083" y="-11"/>
      <point x="912" y="-11" type="curve" smooth="yes"/>
      <point x="778" y="-11"/>
      <point x="500" y="0"/>
      <point x="495" y="0" type="curve"/>
      <point x="495" y="280" type="line"/>
      <point x="223" y="280" type="line"/>
      <point x="223" y="0" type="line"/>
      <point x="42" y="0" type="line"/>
      <point x="42" y="701" type="line"/>
      <point x="223" y="701" type="line"/>
      <point x="223" y="436" type="line"/>
      <point x="495" y="436" type="line"/>
      <point x="495" y="701" type="line"/>
      <point x="675" y="701" type="line"/>
      <point x="675" y="436" type="line"/>
    </contour>
    <contour>
      <point x="1002" y="193" type="curve" smooth="yes"/>
      <point x="1002" y="240" type="line" smooth="yes"/>
      <point x="1002" y="271"/>
      <point x="981" y="279"/>
      <point x="952" y="279" type="curve" smooth="yes"/>
      <point x="675" y="279" type="line"/>
      <point x="675" y="155" type="line"/>
      <point x="779" y="151"/>
      <point x="931" y="150"/>
      <point x="942" y="151" type="curve" smooth="yes"/>
      <point x="984" y="155"/>
      <point x="1002" y="165"/>
    </contour>
  </outline>
</glyph>
<glyph name="uni0417" format="1">
  <advance width="666" height="962"/>
  <unicode hex="0417"/>
  <outline>
    <contour>
      <point x="115" y="439" type="line"/>
      <point x="268" y="439" type="line" smooth="yes"/>
      <point x="378" y="439"/>
      <point x="407" y="463"/>
      <point x="407" y="495" type="curve" smooth="yes"/>
      <point x="407" y="532"/>
      <point x="365" y="549"/>
      <point x="255" y="549" type="curve" smooth="yes"/>
      <point x="227" y="549"/>
      <point x="141" y="544"/>
      <point x="117" y="536" type="curve"/>
      <point x="72" y="671" type="line"/>
      <point x="144" y="695"/>
      <point x="236" y="710"/>
      <point x="308" y="710" type="curve" smooth="yes"/>
      <point x="493" y="710"/>
      <point x="596" y="627"/>
      <point x="596" y="521" type="curve" smooth="yes"/>
      <point x="596" y="456"/>
      <point x="575" y="417"/>
      <point x="528" y="386" type="curve"/>
      <point x="596" y="355"/>
      <point x="639" y="297"/>
      <point x="639" y="210" type="curve" smooth="yes"/>
      <point x="639" y="99"/>
      <point x="546" y="-12"/>
      <point x="265" y="-12" type="curve" smooth="yes"/>
      <point x="144" y="-12"/>
      <point x="14" y="21"/>
      <point x="14" y="21" type="curve"/>
      <point x="33" y="173" type="line"/>
      <point x="33" y="173"/>
      <point x="137" y="146"/>
      <point x="230" y="146" type="curve" smooth="yes"/>
      <point x="403" y="146"/>
      <point x="455" y="169"/>
      <point x="455" y="221" type="curve" smooth="yes"/>
      <point x="455" y="255"/>
      <point x="431" y="280"/>
      <point x="305" y="280" type="curve" smooth="yes"/>
      <point x="164" y="280" type="line"/>
    </contour>
  </outline>
</glyph>
<glyph name="uni0427" format="1">
  <advance width="711" height="962"/>
  <unicode hex="0427"/>
  <outline>
    <contour>
      <point x="689" y="700" type="line"/>
      <point x="689" y="0" type="line"/>
      <point x="509" y="0" type="line"/>
      <point x="509" y="227" type="line"/>
      <point x="434" y="208"/>
      <point x="378" y="202"/>
      <point x="283" y="203" type="curve" smooth="yes"/>
      <point x="133" y="204"/>
      <point x="23" y="259"/>
      <point x="23" y="391" type="curve" smooth="yes"/>
      <point x="23" y="700" type="line"/>
      <point x="203" y="700" type="line"/>
      <point x="203" y="416" type="line" smooth="yes"/>
      <point x="203" y="372"/>
      <point x="249" y="359"/>
      <point x="364" y="359" type="curve" smooth="yes"/>
      <point x="443" y="359"/>
      <point x="509" y="384"/>
      <point x="509" y="419" type="curve" smooth="yes"/>
      <point x="509" y="700" type="line"/>
    </contour>
  </outline>
</glyph>
<glyph name="uni0429" format="1">
  <advance width="1027" height="962"/>
  <unicode hex="0429"/>
  <outline>
    <component base="uni0428"/>
    <contour>
      <point x="808" y="148" type="line"/>
      <point x="1005" y="148" type="line"/>
      <point x="1005" y="-125" type="line"/>
      <point x="836" y="-125" type="line"/>
      <point x="825" y="0" type="line"/>
      <point x="808" y="0" type="line"/>
    </contour>
  </outline>
</glyph>
<glyph name="uni0433" format="1">
  <advance width="456" height="962"/>
  <unicode hex="0433"/>
  <outline>
    <contour>
      <point x="33" y="500" type="line"/>
      <point x="445" y="500" type="line"/>
      <point x="445" y="339" type="line"/>
      <point x="213" y="339" type="line"/>
      <point x="213" y="0" type="line"/>
      <point x="33" y="0" type="line"/>
    </contour>
  </outline>
</glyph>
<glyph name="uni0436" format="1">
  <advance width="833" height="962"/>
  <unicode hex="0436"/>
  <outline>
    <contour>
      <point x="823" y="500" type="line"/>
      <point x="747" y="249" type="line"/>
      <point x="820" y="0" type="line"/>
      <point x="643" y="0" type="line"/>
      <point x="599" y="169" type="line"/>
      <point x="512" y="169" type="line"/>
      <point x="512" y="0" type="line"/>
      <point x="332" y="0" type="line"/>
      <point x="332" y="169" type="line"/>
      <point x="249" y="169" type="line"/>
      <point x="207" y="0" type="line"/>
      <point x="16" y="0" type="line"/>
      <point x="100" y="248" type="line"/>
      <point x="22" y="500" type="line"/>
      <point x="210" y="500" type="line"/>
      <point x="249" y="326" type="line"/>
      <point x="332" y="326" type="line"/>
      <point x="332" y="500" type="line"/>
      <point x="512" y="500" type="line"/>
      <point x="512" y="326" type="line"/>
      <point x="599" y="326" type="line"/>
      <point x="638" y="500" type="line"/>
    </contour>
  </outline>
</glyph>
<glyph name="uni0437" format="1">
  <advance width="580" height="962"/>
  <unicode hex="0437"/>
  <outline>
    <contour>
      <point x="109" y="359" type="curve"/>
      <point x="129" y="497" type="line"/>
      <point x="187" y="507"/>
      <point x="244" y="513"/>
      <point x="298" y="512" type="curve" smooth="yes"/>
      <point x="447" y="509"/>
      <point x="507" y="453"/>
      <point x="519" y="393" type="curve" smooth="yes"/>
      <point x="528" y="352"/>
      <point x="511" y="303"/>
      <point x="471" y="277" type="curve"/>
      <point x="526" y="250"/>
      <point x="549" y="202"/>
      <point x="549" y="149" type="curve" smooth="yes"/>
      <point x="549" y="56"/>
      <point x="463" y="-11"/>
      <point x="285" y="-11" type="curve" smooth="yes"/>
      <point x="192" y="-11"/>
      <point x="101" y="1"/>
      <point x="21" y="23" type="curve"/>
      <point x="65" y="171" type="line"/>
      <point x="96" y="161"/>
      <point x="190" y="150"/>
      <point x="276" y="150" type="curve" smooth="yes"/>
      <point x="320" y="150"/>
      <point x="352" y="150"/>
      <point x="352" y="169" type="curve" smooth="yes"/>
      <point x="352" y="185"/>
      <point x="340" y="189"/>
      <point x="288" y="189" type="curve" smooth="yes"/>
      <point x="168" y="189" type="line"/>
      <point x="112" y="326" type="line"/>
      <point x="320" y="326" type="line" smooth="yes"/>
      <point x="336" y="326"/>
      <point x="341" y="333"/>
      <point x="341" y="345" type="curve" smooth="yes"/>
      <point x="341" y="356"/>
      <point x="330" y="360"/>
      <point x="315" y="362" type="curve" smooth="yes"/>
      <point x="282" y="366"/>
      <point x="203" y="363"/>
    </contour>
  </outline>
</glyph>
<glyph name="uni0448" format="1">
  <advance width="875" height="962"/>
  <unicode hex="0448"/>
  <outline>
    <contour>
      <point x="652" y="500" type="line"/>
      <point x="832" y="500" type="line"/>
      <point x="832" y="0" type="line"/>
      <point x="44" y="0" type="line"/>
      <point x="44" y="500" type="line"/>
      <point x="224" y="500" type="line"/>
      <point x="224" y="149" type="line"/>
      <point x="346" y="149" type="line"/>
      <point x="346" y="500" type="line"/>
      <point x="527" y="500" type="line"/>
      <point x="527" y="149" type="line"/>
      <point x="652" y="149" type="line"/>
    </contour>
  </outline>
</glyph>
<glyph name="uni044E" format="1">
  <advance width="940" height="962"/>
  <unicode hex="044E"/>
  <outline>
    <component base="o" xOffset="296"/>
    <component base="dotlessi"/>
    <contour>
      <point x="129" y="331" type="line"/>
      <point x="413" y="331" type="line"/>
      <point x="413" y="170" type="line"/>
      <point x="129" y="170" type="line"/>
    </contour>
  </outline>
</glyph>
<glyph name="uni045A" format="1">
  <advance width="1051" height="962"/>
  <unicode hex="045A"/>
  <outline>
    <contour>
      <point x="782" y="359" type="line" smooth="yes"/>
      <point x="911" y="359"/>
      <point x="1029" y="313"/>
      <point x="1029" y="179" type="curve" smooth="yes"/>
      <point x="1029" y="77"/>
      <point x="958" y="-10"/>
      <point x="759" y="-10" type="curve" smooth="yes"/>
      <point x="666" y="-10"/>
      <point x="441" y="1"/>
      <point x="441" y="1" type="curve"/>
      <point x="441" y="200" type="line"/>
      <point x="211" y="200" type="line"/>
      <point x="211" y="0" type="line"/>
      <point x="31" y="0" type="line"/>
      <point x="31" y="500" type="line"/>
      <point x="211" y="500" type="line"/>
      <point x="211" y="359" type="line"/>
      <point x="441" y="359" type="line"/>
      <point x="441" y="500" type="line"/>
      <point x="621" y="500" type="line"/>
      <point x="621" y="359" type="line"/>
    </contour>
    <contour>
      <point x="799" y="150" type="curve" smooth="yes"/>
      <point x="828" y="150"/>
      <point x="849" y="158"/>
      <point x="849" y="176" type="curve" smooth="yes"/>
      <point x="849" y="193"/>
      <point x="834" y="200"/>
      <point x="809" y="200" type="curve" smooth="yes"/>
      <point x="620" y="200" type="line"/>
      <point x="620" y="151" type="line"/>
      <point x="665" y="151"/>
      <point x="779" y="150"/>
    </contour>
  </outline>
</glyph>
<glyph name="uni0462" format="2">
  <advance width="659"/>
  <unicode hex="0462"/>
  <outline>
    <component base="uni042C" xOffset="10"/>
    <contour>
      <point x="1" y="641" type="line"/>
      <point x="456" y="641" type="line"/>
      <point x="456" y="524" type="line"/>
      <point x="1" y="524" type="line"/>
    </contour>
  </outline>
</glyph>
<glyph name="uni046A" format="1">
  <advance width="965" height="962"/>
  <unicode hex="046A"/>
  <outline>
    <contour>
      <point x="728" y="376" type="line" smooth="yes"/>
      <point x="834" y="376"/>
      <point x="926" y="327"/>
      <point x="926" y="231" type="curve" smooth="yes"/>
      <point x="926" y="0" type="line"/>
      <point x="746" y="0" type="line"/>
      <point x="746" y="165" type="line" smooth="yes"/>
      <point x="746" y="205"/>
      <point x="728" y="216"/>
      <point x="672" y="216" type="curve" smooth="yes"/>
      <point x="564" y="216" type="line"/>
      <point x="564" y="0" type="line"/>
      <point x="383" y="0" type="line"/>
      <point x="383" y="216" type="line"/>
      <point x="275" y="216" type="line" smooth="yes"/>
      <point x="223" y="216"/>
      <point x="204" y="205"/>
      <point x="204" y="166" type="curve" smooth="yes"/>
      <point x="204" y="0" type="line"/>
      <point x="36" y="0" type="line"/>
      <point x="36" y="233" type="line" smooth="yes"/>
      <point x="36" y="329"/>
      <point x="125" y="376"/>
      <point x="225" y="376" type="curve" smooth="yes"/>
      <point x="304" y="376" type="line"/>
      <point x="66" y="700" type="line"/>
      <point x="885" y="700" type="line"/>
      <point x="654" y="376" type="line"/>
    </contour>
    <contour>
      <point x="476" y="425" type="line"/>
      <point x="558" y="540" type="line"/>
      <point x="394" y="540" type="line"/>
    </contour>
  </outline>
</glyph>
<glyph name="uni046B" format="2">
  <advance width="938" height="962"/>
  <unicode hex="046B"/>
  <outline>
    <contour>
      <point x="738" y="302" type="line" smooth="yes"/>
      <point x="855" y="302"/>
      <point x="913" y="234"/>
      <point x="913" y="172" type="curve" smooth="yes"/>
      <point x="913" y="0" type="line"/>
      <point x="733" y="0" type="line"/>
      <point x="733" y="89" type="line" smooth="yes"/>
      <point x="733" y="123"/>
      <point x="715" y="142"/>
      <point x="662" y="142" type="curve" smooth="yes"/>
      <point x="558" y="142" type="line"/>
      <point x="558" y="0" type="line"/>
      <point x="378" y="0" type="line"/>
      <point x="378" y="142" type="line"/>
      <point x="274" y="142" type="line" smooth="yes"/>
      <point x="216" y="142"/>
      <point x="207" y="123"/>
      <point x="207" y="90" type="curve" smooth="yes"/>
      <point x="207" y="0" type="line"/>
      <point x="27" y="0" type="line"/>
      <point x="27" y="172" type="line" smooth="yes"/>
      <point x="27" y="232"/>
      <point x="88" y="302"/>
      <point x="198" y="302" type="curve" smooth="yes"/>
      <point x="274" y="302" type="line"/>
      <point x="70" y="500" type="line"/>
      <point x="867" y="500" type="line"/>
      <point x="661" y="302" type="line"/>
    </contour>
    <contour>
      <point x="468" y="322" type="line"/>
      <point x="508" y="365" type="line"/>
      <point x="428" y="365" type="line"/>
    </contour>
  </outline>
</glyph>
<glyph name="uni0475" format="1">
  <advance width="710" height="962"/>
  <unicode hex="0475"/>
  <outline>
    <contour>
      <point x="628" y="521" type="curve"/>
      <point x="710" y="396" type="line"/>
      <point x="636" y="380"/>
      <point x="607" y="352"/>
      <point x="578" y="288" type="curve" smooth="yes"/>
      <point x="446" y="0" type="line"/>
      <point x="235" y="0" type="line"/>
      <point x="17" y="500" type="line"/>
      <point x="207" y="500" type="line"/>
      <point x="341" y="185" type="line"/>
      <point x="417" y="361" type="line" smooth="yes"/>
      <point x="465" y="472"/>
      <point x="517" y="501"/>
    </contour>
  </outline>
</glyph>
<glyph name="uni0490" format="1">
  <advance width="554" height="962"/>
  <unicode hex="0490"/>
  <outline>
    <component base="Gamma"/>
    <contour>
      <point x="375" y="812" type="line"/>
      <point x="541.5" y="812" type="line"/>
      <point x="541.5" y="644" type="line"/>
      <point x="367.5" y="644" type="line"/>
      <point x="367.5" y="700" type="line"/>
    </contour>
  </outline>
</glyph>
<glyph name="uni049C" format="2">
  <advance width="884"/>
  <unicode hex="049C"/>
  <outline>
    <contour>
      <point x="856" y="0" type="line"/>
      <point x="645" y="0" type="line"/>
      <point x="470" y="307" type="line"/>
      <point x="412" y="307" type="line"/>
      <point x="412" y="251" type="line"/>
      <point x="291" y="251" type="line"/>
      <point x="291" y="307" type="line"/>
      <point x="221" y="307" type="line"/>
      <point x="221" y="0" type="line"/>
      <point x="41" y="0" type="line"/>
      <point x="41" y="700" type="line"/>
      <point x="221" y="700" type="line"/>
      <point x="221" y="460" type="line"/>
      <point x="291" y="460" type="line"/>
      <point x="291" y="518" type="line"/>
      <point x="412" y="518" type="line"/>
      <point x="412" y="460" type="line"/>
      <point x="464" y="460" type="line"/>
      <point x="593" y="702" type="line"/>
      <point x="792" y="702" type="line"/>
      <point x="622" y="391" type="line"/>
    </contour>
  </outline>
</glyph>
<glyph name="uni04A0" format="2">
  <advance width="865"/>
  <unicode hex="04A0"/>
  <outline>
    <component base="K" xOffset="126.5"/>
    <contour>
      <point x="1" y="700" type="line"/>
      <point x="261" y="700" type="line"/>
      <point x="261" y="550" type="line"/>
      <point x="177" y="550" type="line"/>
      <point x="1" y="552" type="line"/>
    </contour>
  </outline>
</glyph>
<glyph name="uni04A1" format="2">
  <advance width="887"/>
  <unicode hex="04A1"/>
  <outline>
    <contour>
      <point x="713" y="185" type="line" smooth="yes"/>
      <point x="749" y="161"/>
      <point x="792" y="148"/>
      <point x="860" y="148" type="curve" smooth="yes"/>
      <point x="864" y="148" type="line"/>
      <point x="864" y="0" type="line"/>
      <point x="790" y="0" type="line" smooth="yes"/>
      <point x="676" y="0"/>
      <point x="625" y="38"/>
      <point x="564" y="80" type="curve" smooth="yes"/>
      <point x="431" y="171" type="line"/>
      <point x="360" y="115" type="line"/>
      <point x="360" y="0" type="line"/>
      <point x="180" y="0" type="line"/>
      <point x="180" y="350" type="line"/>
      <point x="0" y="352" type="line"/>
      <point x="0" y="500" type="line"/>
      <point x="360" y="500" type="line"/>
      <point x="360" y="319" type="line"/>
      <point x="602" y="500" type="line"/>
      <point x="866" y="500" type="line"/>
      <point x="573" y="278" type="line"/>
    </contour>
  </outline>
</glyph>
<glyph name="uni04A2" format="2">
  <advance width="818" height="962"/>
  <unicode hex="04A2"/>
  <outline>
    <contour>
      <point x="591" y="149" type="line"/>
      <point x="795" y="149" type="line"/>
      <point x="795" y="-125" type="line"/>
      <point x="625" y="-125" type="line"/>
      <point x="613" y="0" type="line"/>
      <point x="591" y="0" type="line"/>
    </contour>
    <contour>
      <point x="508" y="438" type="line"/>
      <point x="508" y="700" type="line"/>
      <point x="689" y="700" type="line"/>
      <point x="689" y="0" type="line"/>
      <point x="508" y="0" type="line"/>
      <point x="508" y="280" type="line"/>
      <point x="222" y="280" type="line"/>
      <point x="222" y="0" type="line"/>
      <point x="41" y="0" type="line"/>
      <point x="41" y="700" type="line"/>
      <point x="222" y="700" type="line"/>
      <point x="222" y="438" type="line"/>
    </contour>
  </outline>
</glyph>
<glyph name="uni04A4" format="2">
  <advance width="831"/>
  <unicode hex="04A4"/>
  <outline>
    <component base="H"/>
    <contour>
      <point x="601" y="700" type="line"/>
      <point x="817" y="700" type="line"/>
      <point x="817" y="552" type="line"/>
      <point x="685" y="550" type="line"/>
      <point x="601" y="550" type="line"/>
    </contour>
  </outline>
</glyph>
<glyph name="uni04A5" format="1">
  <advance width="758" height="962"/>
  <unicode hex="04A5"/>
  <outline>
    <component base="uni043D"/>
    <contour>
      <point x="528" y="500" type="line"/>
      <point x="748" y="500" type="line"/>
      <point x="748" y="352" type="line"/>
      <point x="599" y="350" type="line"/>
      <point x="528" y="350" type="line"/>
    </contour>
  </outline>
</glyph>
<glyph name="uni04B2" format="2">
  <advance width="923"/>
  <unicode hex="04B2"/>
  <outline>
    <contour>
      <point x="701" y="149" type="line"/>
      <point x="905" y="149" type="line"/>
      <point x="905" y="-125" type="line"/>
      <point x="735" y="-125" type="line"/>
      <point x="723" y="0" type="line"/>
      <point x="701" y="0" type="line"/>
    </contour>
    <contour>
      <point x="453" y="491" type="line"/>
      <point x="633" y="700" type="line"/>
      <point x="867" y="700" type="line"/>
      <point x="570" y="361" type="line"/>
      <point x="888" y="0" type="line"/>
      <point x="652" y="0" type="line"/>
      <point x="454" y="228" type="line"/>
      <point x="252" y="0" type="line"/>
      <point x="19" y="0" type="line"/>
      <point x="335" y="362" type="line"/>
      <point x="37" y="700" type="line"/>
      <point x="273" y="700" type="line"/>
    </contour>
  </outline>
</glyph>
<glyph name="uni04B3" format="2">
  <advance width="791"/>
  <unicode hex="04B3"/>
  <outline>
    <component base="x"/>
    <contour>
      <point x="567" y="149" type="line"/>
      <point x="771" y="149" type="line"/>
      <point x="771" y="-125" type="line"/>
      <point x="601" y="-125" type="line"/>
      <point x="589" y="0" type="line"/>
      <point x="567" y="0" type="line"/>
    </contour>
  </outline>
</glyph>
<glyph name="uni04BA" format="1">
  <advance width="744" height="962"/>
  <unicode hex="04BA"/>
  <outline>
    <contour>
      <point x="218" y="700" type="line"/>
      <point x="218" y="426" type="line"/>
      <point x="267" y="448"/>
      <point x="337" y="458"/>
      <point x="423" y="458" type="curve" smooth="yes"/>
      <point x="583" y="458"/>
      <point x="706" y="387"/>
      <point x="706" y="245" type="curve" smooth="yes"/>
      <point x="706" y="-1" type="line"/>
      <point x="526" y="-1" type="line"/>
      <point x="526" y="236" type="line" smooth="yes"/>
      <point x="526" y="276"/>
      <point x="476" y="298"/>
      <point x="362" y="298" type="curve" smooth="yes"/>
      <point x="287" y="298"/>
      <point x="218" y="274"/>
      <point x="218" y="245" type="curve" smooth="yes"/>
      <point x="218" y="-1" type="line"/>
      <point x="38" y="-1" type="line"/>
      <point x="38" y="700" type="line"/>
    </contour>
  </outline>
</glyph>
<glyph name="uni04BB" format="1">
  <advance width="656" height="962"/>
  <unicode hex="04BB"/>
  <outline>
    <contour>
      <point x="37" y="0" type="line"/>
      <point x="37" y="501" type="line"/>
      <point x="216" y="501" type="line"/>
      <point x="216" y="380" type="line"/>
      <point x="251" y="387"/>
      <point x="306" y="397"/>
      <point x="402" y="397" type="curve" smooth="yes"/>
      <point x="537" y="397"/>
      <point x="619" y="340"/>
      <point x="619" y="232" type="curve" smooth="yes"/>
      <point x="619" y="0" type="line"/>
      <point x="439" y="0" type="line"/>
      <point x="439" y="209" type="line" smooth="yes"/>
      <point x="439" y="235"/>
      <point x="402" y="245"/>
      <point x="338" y="245" type="curve" smooth="yes"/>
      <point x="265" y="245"/>
      <point x="216" y="233"/>
      <point x="216" y="204" type="curve" smooth="yes"/>
      <point x="216" y="0" type="line"/>
    </contour>
  </outline>
</glyph>
<glyph name="uni1E9E" format="2">
  <advance width="816"/>
  <unicode hex="1E9E"/>
  <outline>
    <contour>
      <point x="41" y="700" type="line"/>
      <point x="705" y="700" type="line"/>
      <point x="705" y="540" type="line"/>
      <point x="586" y="413" type="line"/>
      <point x="594" y="412" type="line" smooth="yes"/>
      <point x="718" y="396"/>
      <point x="789" y="321"/>
      <point x="789" y="212" type="curve" smooth="yes"/>
      <point x="789" y="83"/>
      <point x="657" y="-12"/>
      <point x="468" y="-12" type="curve" smooth="yes"/>
      <point x="389.214" y="-12"/>
      <point x="316.505" y="-3.71337"/>
      <point x="246.998" y="23.9464" type="curve"/>
      <point x="306.146" y="168.954" type="line"/>
      <point x="349.087" y="157.59"/>
      <point x="406.014" y="153"/>
      <point x="466" y="153" type="curve" smooth="yes"/>
      <point x="557" y="153"/>
      <point x="605" y="181"/>
      <point x="605" y="215" type="curve" smooth="yes"/>
      <point x="605" y="260"/>
      <point x="533" y="275"/>
      <point x="447" y="275" type="curve" smooth="yes"/>
      <point x="264" y="275" type="line"/>
      <point x="490" y="540" type="line"/>
      <point x="221" y="540" type="line"/>
      <point x="221" y="0" type="line"/>
      <point x="41" y="0" type="line"/>
    </contour>
  </outline>
</glyph>
<glyph name="Euro" format="1">
  <advance width="606" height="962"/>
  <unicode hex="20AC"/>
  <outline>
    <component base="C"/>
    <contour>
      <point x="0" y="367" type="line"/>
      <point x="0" y="493" type="line"/>
      <point x="526" y="493" type="line"/>
      <point x="526" y="367" type="line"/>
    </contour>
    <contour>
      <point x="0" y="215" type="line"/>
      <point x="0" y="340" type="line"/>
      <point x="526" y="340" type="line"/>
      <point x="526" y="215" type="line"/>
    </contour>
  </outline>
</glyph>
<glyph name="uni20AE" format="2">
  <advance width="635"/>
  <unicode hex="20AE"/>
  <outline>
    <component base="T" xOffset="1"/>
    <contour>
      <point x="517" y="338" type="line"/>
      <point x="561" y="218" type="line"/>
      <point x="123" y="86" type="line"/>
      <point x="77" y="207" type="line"/>
    </contour>
    <contour>
      <point x="517" y="506" type="line"/>
      <point x="561" y="386" type="line"/>
      <point x="123" y="254" type="line"/>
      <point x="77" y="375" type="line"/>
    </contour>
  </outline>
</glyph>
<glyph name="uni20B8" format="1">
  <advance width="614" height="962"/>
  <unicode hex="20B8"/>
  <outline>
    <contour>
      <point x="397" y="356" type="line"/>
      <point x="397" y="0" type="line"/>
      <point x="218" y="0" type="line"/>
      <point x="218" y="356" type="line"/>
      <point x="5" y="356" type="line"/>
      <point x="5" y="506" type="line"/>
      <point x="611" y="506" type="line"/>
      <point x="611" y="356" type="line"/>
    </contour>
    <contour>
      <point x="5" y="550" type="line"/>
      <point x="5" y="700" type="line"/>
      <point x="609" y="700" type="line"/>
      <point x="609" y="550" type="line"/>
    </contour>
  </outline>
</glyph>
<glyph name="uni2116" format="1">
  <advance width="1374" height="962"/>
  <unicode hex="2116"/>
  <outline>
    <contour>
      <point x="1086" y="289" type="curve" smooth="yes"/>
      <point x="1134" y="289"/>
      <point x="1157" y="296"/>
      <point x="1157" y="319" type="curve" smooth="yes"/>
      <point x="1157" y="336" type="line" smooth="yes"/>
      <point x="1157" y="357"/>
      <point x="1134" y="367"/>
      <point x="1086" y="367" type="curve" smooth="yes"/>
      <point x="1035" y="367"/>
      <point x="1015" y="359"/>
      <point x="1015" y="336" type="curve" smooth="yes"/>
      <point x="1015" y="319" type="line" smooth="yes"/>
      <point x="1015" y="297"/>
      <point x="1043" y="289"/>
    </contour>
    <contour>
      <point x="1081" y="516" type="curve" smooth="yes"/>
      <point x="1259" y="516"/>
      <point x="1336" y="442"/>
      <point x="1336" y="361" type="curve" smooth="yes"/>
      <point x="1336" y="304" type="line" smooth="yes"/>
      <point x="1336" y="204"/>
      <point x="1247" y="149"/>
      <point x="1081" y="149" type="curve" smooth="yes"/>
      <point x="923" y="149"/>
      <point x="835" y="207"/>
      <point x="835" y="304" type="curve" smooth="yes"/>
      <point x="835" y="361" type="line" smooth="yes"/>
      <point x="835" y="454"/>
      <point x="917" y="516"/>
    </contour>
    <contour>
      <point x="835" y="0" type="line"/>
      <point x="835" y="122" type="line"/>
      <point x="1336" y="122" type="line"/>
      <point x="1336" y="0" type="line"/>
    </contour>
    <contour>
      <point x="782" y="700" type="line"/>
      <point x="782" y="0" type="line"/>
      <point x="592" y="0" type="line"/>
      <point x="216" y="443" type="line"/>
      <point x="216" y="-1" type="line"/>
      <point x="41" y="0" type="line"/>
      <point x="41" y="700" type="line"/>
      <point x="216" y="700" type="line"/>
      <point x="604" y="245" type="line"/>
      <point x="604" y="700" type="line"/>
    </contour>
  </outline>
</glyph>
<glyph name="commaaccent" format="1">
  <advance width="267" height="962"/>
  <unicode hex="F6C3"/>
  <outline>
    <contour>
      <point x="93" y="-133" type="line"/>
      <point x="106" y="-120"/>
      <point x="112" y="-110"/>
      <point x="116" y="-100" type="curve"/>
      <point x="81" y="-91"/>
      <point x="56" y="-62"/>
      <point x="56" y="-26" type="curve" smooth="yes"/>
      <point x="56" y="17"/>
      <point x="91" y="52"/>
      <point x="135" y="52" type="curve" smooth="yes"/>
      <point x="176" y="52"/>
      <point x="210" y="17"/>
      <point x="210" y="-26" type="curve" smooth="yes"/>
      <point x="210" y="-128"/>
      <point x="121" y="-155"/>
      <point x="123" y="-155" type="curve"/>
    </contour>
  </outline>
</glyph>
<glyph name="gamma_gamma" format="2">
  <advance width="1197" height="962"/>
  <outline>
    <component base="gamma" xOffset="452.5"/>
    <contour>
      <point x="667" y="501" type="line"/>
      <point x="542" y="-11" type="line" smooth="yes"/>
      <point x="513" y="-130"/>
      <point x="436" y="-223"/>
      <point x="170" y="-203" type="curve"/>
      <point x="122" y="-31" type="line"/>
      <point x="193" y="-31"/>
      <point x="329" y="-42"/>
      <point x="337" y="-7" type="curve" smooth="yes"/>
      <point x="343" y="19" type="line"/>
      <point x="228" y="27"/>
      <point x="144" y="70"/>
      <point x="108" y="198" type="curve" smooth="yes"/>
      <point x="23" y="501" type="line"/>
      <point x="218" y="501" type="line"/>
      <point x="284" y="237" type="line" smooth="yes"/>
      <point x="302" y="167"/>
      <point x="388" y="182"/>
      <point x="388" y="182" type="curve"/>
      <point x="472" y="501" type="line"/>
    </contour>
  </outline>
</glyph>
<glyph name="ogonekcomb" format="1">
  <advance width="267" height="962"/>
  <outline>
    <contour>
      <point x="204" y="9" type="line"/>
      <point x="204" y="0" type="line"/>
      <point x="108" y="-115" type="line" smooth="yes"/>
      <point x="100" y="-124"/>
      <point x="108" y="-138"/>
      <point x="122" y="-133" type="curve" smooth="yes"/>
      <point x="138" y="-127"/>
      <point x="230" y="-87"/>
      <point x="230" y="-87" type="curve"/>
      <point x="272" y="-178" type="line"/>
      <point x="247" y="-188"/>
      <point x="178" y="-217"/>
      <point x="155" y="-224" type="curve" smooth="yes"/>
      <point x="42" y="-257"/>
      <point x="-42" y="-154"/>
      <point x="36" y="-58" type="curve" smooth="yes"/>
      <point x="84" y="1" type="line"/>
      <point x="84" y="9" type="line"/>
    </contour>
  </outline>
</glyph>
<glyph name="sigma_tau" format="2">
  <advance width="1217" height="962"/>
  <outline>
    <contour>
      <point x="975" y="327" type="line"/>
      <point x="1041" y="329"/>
      <point x="1112" y="332"/>
      <point x="1186" y="339" type="curve"/>
      <point x="1186" y="502" type="line"/>
      <point x="972" y="475"/>
      <point x="762" y="483"/>
      <point x="498" y="502" type="curve" smooth="yes"/>
      <point x="433" y="507"/>
      <point x="386" y="512"/>
      <point x="321" y="512" type="curve" smooth="yes"/>
      <point x="168" y="512"/>
      <point x="30" y="471"/>
      <point x="30" y="321" type="curve" smooth="yes"/>
      <point x="30" y="185" type="line" smooth="yes"/>
      <point x="30" y="63"/>
      <point x="117" y="-10"/>
      <point x="324" y="-10" type="curve" smooth="yes"/>
      <point x="515" y="-10"/>
      <point x="612" y="59"/>
      <point x="612" y="185" type="curve" smooth="yes"/>
      <point x="612" y="247" type="line" smooth="yes"/>
      <point x="612" y="289"/>
      <point x="597" y="323"/>
      <point x="570" y="345" type="curve"/>
      <point x="628" y="339"/>
      <point x="705" y="332"/>
      <point x="795" y="329" type="curve"/>
      <point x="795" y="169" type="line" smooth="yes"/>
      <point x="795" y="91"/>
      <point x="837" y="-12"/>
      <point x="1020" y="-13" type="curve"/>
      <point x="1081" y="153" type="line"/>
      <point x="1021" y="153"/>
      <point x="975" y="159"/>
      <point x="975" y="220" type="curve" smooth="yes"/>
    </contour>
    <contour>
      <point x="399" y="344" type="curve"/>
      <point x="431" y="340"/>
      <point x="432" y="312"/>
      <point x="432" y="305" type="curve" smooth="yes"/>
      <point x="432" y="203" type="line" smooth="yes"/>
      <point x="432" y="174"/>
      <point x="402" y="161"/>
      <point x="321" y="161" type="curve" smooth="yes"/>
      <point x="240" y="161"/>
      <point x="208" y="174"/>
      <point x="208" y="203" type="curve" smooth="yes"/>
      <point x="208" y="302" type="line" smooth="yes"/>
      <point x="208" y="334"/>
      <point x="253" y="346"/>
      <point x="318" y="346" type="curve" smooth="yes"/>
      <point x="334" y="346"/>
      <point x="382" y="346"/>
    </contour>
  </outline>
</glyph>
